<?xml version="1.0" encoding="UTF-8"?>
<svg id="svgdata" enable-background="new" version="1.1" xmlns="http://www.w3.org/2000/svg" xmlns:cc="http://creativecommons.org/ns#" xmlns:dc="http://purl.org/dc/elements/1.1/" xmlns:rdf="http://www.w3.org/1999/02/22-rdf-syntax-ns#">
 <metadata id="metadata3850">
  <rdf:RDF>
   <cc:Work rdf:about="">
    <dc:format>image/svg+xml</dc:format>
    <dc:type rdf:resource="http://purl.org/dc/dcmitype/StillImage"/>
    <dc:title/>
   </cc:Work>
  </rdf:RDF>
 </metadata>
 <defs id="defs3789">
  <style id="style3787" type="text/css">.state {fill:#D3D3D3;}</style>
 </defs>
 <g id="outlines" class="state">
  <path id="AK" d="m161.1 453.7-0.3 85.4 1.6 1 3.1 0.2 1.5-1.1h2.6l0.2 2.9 7 6.8 0.5 2.6 3.4-1.9 0.6-0.2 0.3-3.1 1.5-1.6 1.1-0.2 1.9-1.5 3.1 2.1 0.6 2.9 1.9 1.1 1.1 2.4 3.9 1.8 3.4 6 2.7 3.9 2.3 2.7 1.5 3.7 5 1.8 5.2 2.1 1 4.4 0.5 3.1-1 3.4-1.8 2.3-1.6-0.8-1.5-3.1-2.7-1.5-1.8-1.1-0.8 0.8 1.5 2.7 0.2 3.7-1.1 0.5-1.9-1.9-2.1-1.3 0.5 1.6 1.3 1.8-0.8 0.8s-0.8-0.3-1.3-1c-0.5-0.6-2.1-3.4-2.1-3.4l-1-2.3s-0.3 1.3-1 1c-0.6-0.3-1.3-1.5-1.3-1.5l1.8-1.9-1.5-1.5v-5h-0.8l-0.8 3.4-1.1 0.5-1-3.7-0.6-3.7-0.8-0.5 0.3 5.7v1.1l-1.5-1.3-3.6-6-2.1-0.5-0.6-3.7-1.6-2.9-1.6-1.1v-2.3l2.1-1.3-0.5-0.3-2.6 0.6-3.4-2.4-2.6-2.9-4.8-2.6-4-2.6 1.3-3.2v-1.6l-1.8 1.6-2.9 1.1-3.7-1.1-5.7-2.4h-5.5l-0.6 0.5-6.5-3.9-2.1-0.3-2.7-5.8-3.6 0.3-3.6 1.5 0.5 4.5 1.1-2.9 1 0.3-1.5 4.4 3.2-2.7 0.6 1.6-3.9 4.4-1.3-0.3-0.5-1.9-1.3-0.8-1.3 1.1-2.7-1.8-3.1 2.1-1.8 2.1-3.4 2.1-4.7-0.2-0.5-2.1 3.7-0.6v-1.3l-2.3-0.6 1-2.4 2.3-3.9v-1.8l0.2-0.8 4.4-2.3 1 1.3h2.7l-1.3-2.6-3.7-0.3-5 2.7-2.4 3.4-1.8 2.6-1.1 2.3-4.2 1.5-3.1 2.6-0.3 1.6 2.3 1 0.8 2.1-2.7 3.2-6.5 4.2-7.8 4.2-2.1 1.1-5.3 1.1-5.3 2.3 1.8 1.3-1.5 1.5-0.5 1.1-2.7-1-3.2 0.2-0.8 2.3h-1l0.3-2.4-3.6 1.3-2.9 1-3.4-1.3-2.9 1.9h-3.2l-2.1 1.3-1.6 0.8-2.1-0.3-2.6-1.1-2.3 0.6-1 1-1.6-1.1v-1.9l3.1-1.3 6.3 0.6 4.4-1.6 2.1-2.1 2.9-0.6 1.8-0.8 2.7 0.2 1.6 1.3 1-0.3 2.3-2.7 3.1-1 3.4-0.6 1.3-0.3 0.6 0.5h0.8l1.3-3.7 4-1.5 1.9-3.7 2.3-4.5 1.6-1.5 0.3-2.6-1.6 1.3-3.4 0.6-0.6-2.4-1.3-0.3-1 1-0.2 2.9-1.5-0.2-1.5-5.8-1.3 1.3-1.1-0.5-0.3-1.9-4 0.2-2.1 1.1-2.6-0.3 1.5-1.5 0.5-2.6-0.6-1.9 1.5-1 1.3-0.2-0.6-1.8v-4.4l-1-1-0.8 1.5h-6.1l-1.5-1.3-0.6-3.9-2.1-3.6v-1l2.1-0.8 0.2-2.1 1.1-1.1-0.8-0.5-1.3 0.5-1.1-2.7 1-5 4.5-3.2 2.6-1.6 1.9-3.7 2.7-1.3 2.6 1.1 0.3 2.4 2.4-0.3 3.2-2.4 1.6 0.6 1 0.6h1.6l2.3-1.3 0.8-4.4s0.3-2.9 1-3.4c0.6-0.5 1-1 1-1l-1.1-1.9-2.6 0.8-3.2 0.8-1.9-0.5-3.6-1.8-5-0.2-3.6-3.7 0.5-3.9 0.6-2.4-2.1-1.8-1.9-3.7 0.5-0.8 6.8-0.5h2.1l1 1h0.6l-0.2-1.6 3.9-0.6 2.6 0.3 1.5 1.1-1.5 2.1-0.5 1.5 2.7 1.6 5 1.8 1.8-1-2.3-4.4-1-3.2 1-0.8-3.4-1.9-0.5-1.1 0.5-1.6-0.8-3.9-2.9-4.7-2.4-4.2 2.9-1.9h3.2l1.8 0.6 4.2-0.2 3.7-3.6 1.1-3.1 3.7-2.4 1.6 1 2.7-0.6 3.7-2.1 1.1-0.2 1 0.8 4.5-0.2 2.7-3.1h1.1l3.6 2.4 1.9 2.1-0.5 1.1 0.6 1.1 1.6-1.6 3.9 0.3 0.3 3.7 1.9 1.5 7.1 0.6 6.3 4.2 1.5-1 5.2 2.6 2.1-0.6 1.9-0.8 4.8 1.9zm-115.1 28.9 2.1 5.3-0.2 1-2.9-0.3-1.8-4-1.8-1.5h-2.4l-0.2-2.6 1.8-2.4 1.1 2.4 1.5 1.5zm-2.6 33.5 3.7 0.8 3.7 1 0.8 1-1.6 3.7-3.1-0.2-3.4-3.6zm-20.7-14.1 1.1 2.6 1.1 1.6-1.1 0.8-2.1-3.1v-1.9zm-13.7 73.1 3.4-2.3 3.4-1 2.6 0.3 0.5 1.6 1.9 0.5 1.9-1.9-0.3-1.6 2.7-0.6 2.9 2.6-1.1 1.8-4.4 1.1-2.7-0.5-3.7-1.1-4.4 1.5-1.6 0.3zm48.9-4.5 1.6 1.9 2.1-1.6-1.5-1.3zm2.9 3 1.1-2.3 2.1 0.3-0.8 1.9h-2.4zm23.6-1.9 1.5 1.8 1-1.1-0.8-1.9zm8.8-12.5 1.1 5.8 2.9 0.8 5-2.9 4.4-2.6-1.6-2.4 0.5-2.4-2.1 1.3-2.9-0.8 1.6-1.1 1.9 0.8 3.9-1.8 0.5-1.5-2.4-0.8 0.8-1.9-2.7 1.9-4.7 3.6-4.8 2.9zm42.3-19.8 2.4-1.5-1-1.8-1.8 1z" fill="#fff"/>
  <path id="HI" d="m233.1 519.3 1.9-3.6 2.3-0.3 0.3 0.8-2.1 3.1zm10.2-3.7 6.1 2.6 2.1-0.3 1.6-3.9-0.6-3.4-4.2-0.5-4 1.8zm30.7 10 3.7 5.5 2.4-0.3 1.1-0.5 1.5 1.3 3.7-0.2 1-1.5-2.9-1.8-1.9-3.7-2.1-3.6-5.8 2.9zm20.2 8.9 1.3-1.9 4.7 1 0.6-0.5 6.1 0.6-0.3 1.3-2.6 1.5-4.4-0.3zm5.3 5.2 1.9 3.9 3.1-1.1 0.3-1.6-1.6-2.1-3.7-0.3zm7-1.2 2.3-2.9 4.7 2.4 4.4 1.1 4.4 2.7v1.9l-3.6 1.8-4.8 1-2.4-1.5zm16.6 15.6 1.6-1.3 3.4 1.6 7.6 3.6 3.4 2.1 1.6 2.4 1.9 4.4 4 2.6-0.3 1.3-3.9 3.2-4.2 1.5-1.5-0.6-3.1 1.8-2.4 3.2-2.3 2.9-1.8-0.2-3.6-2.6-0.3-4.5 0.6-2.4-1.6-5.7-2.1-1.8-0.2-2.6 2.3-1 2.1-3.1 0.5-1-1.6-1.8z" fill="#fff"/>
  <path id="AL" d="m628.5 466.4 0.6 0.2 1.3-2.7 1.5-4.4 2.3 0.6 3.1 6v1l-2.7 1.9 2.7 0.3 5.2-2.5-0.3-7.6-2.5-1.8-2-2 0.4-4 10.5-1.5 25.7-2.9 6.7-0.6 5.6 0.1-0.5-2.2-1.5-0.8-0.9-1.1 1-2.6-0.4-5.2-1.6-4.5 0.8-5.1 1.7-4.8-0.2-1.7-1.8-0.7-0.5-3.6-2.7-3.4-2-6.5-1.4-6.7-1.8-5-3.8-16-3.5-7.9-0.8-5.6 0.1-2.2-9 0.8-23.4 2.2-12.2 0.8-0.2 6.4 0.2 16.7-0.7 31-0.3 14.1 2.8 18.8 1.6 14.7z" fill="#fff"/>
  <path id="AR" d="m587.3 346.1-6.4-0.7 0.9-3.1 3.1-2.6 0.6-2.3-1.8-2.9-31.9 1.2-23.3 0.7-23.6 0.3 1.5 6.9 0.1 8.5 1.4 10.9 0.3 38.2 2.1 1.6 3-1.2 2.9 1.2 0.4 10.1 25.2-0.2 26.8-0.8 0.9-1.9-0.3-3.8-1.7-3.1 1.5-1.4-1.4-2.2 0.7-2.4 1.1-5.9 2.7-2.3-0.8-2.2 4-5.6 2.5-1.1-0.1-1.7-0.5-1.7 2.9-5.8 2.5-1.1 0.2-3.3 2.1-1.4 0.9-4.1-1.4-4 4.2-2.4 0.3-2.1 1.2-4.2 0.9-3.1z" fill="#fff"/>
  <path id="AZ" d="m135.1 389.7-0.3 1.5 0.5 1 18.9 10.7 12.1 7.6 14.7 8.6 16.8 10 12.3 2.4 25.4 2.7 6-39.6 7-53.1 4.4-31-24.6-3.6-60.7-11-0.2 1.1-2.6 16.5-2.1 3.8-2.8-0.2-1.2-2.6-2.6-0.4-1.2-1.1-1.1 0.1-2.1 1.7-0.3 6.8-0.3 1.5-0.5 12.5-1.5 2.4-0.4 3.3 2.8 5 1.1 5.5 0.7 1.1 1.1 0.9-0.4 2.4-1.7 1.2-3.4 1.6-1.6 1.8-1.6 3.6-0.5 4.9-3 2.9-1.9 0.9-0.1 5.8-0.6 1.6 0.5 0.8 3.9 0.4-0.9 3-1.7 2.4-3.7 0.4z" fill="#fff"/>
  <path id="CA" d="m122.7 385.9-19.7-2.7-10-1.5-0.5-1.8v-9.4l-0.3-3.2-2.6-4.2-0.8-2.3-3.9-4.2-2.9-4.7-2.7-0.2-3.2-0.8-0.3-1 1.5-0.6-0.6-3.2-1.5-2.1-4.8-0.8-3.9-2.1-1.1-2.3-2.6-4.8-2.9-3.1h-2.9l-3.9-2.1-4.5-1.8-4.2-0.5-2.4-2.7 0.5-1.9 1.8-7.1 0.8-1.9v-2.4l-1.6-1-0.5-2.9-1.5-2.6-3.4-5.8-1.3-3.1-1.5-4.7-1.6-5.3-3.2-4.4-0.5-2.9 0.8-3.9h1.1l2.1-1.6 1.1-3.6-1-2.7-2.7-0.5-1.9-2.6-2.1-3.7-0.2-8.2 0.6-1.9 0.6-2.3 0.5-2.4-5.7-6.3v-2.1l0.3-0.5 0.3-3.2-1.3-4-2.3-4.8-2.7-4.5-1.8-3.9 1-3.7 0.6-5.8 1.8-3.1 0.3-6.5-1.1-3.6-1.6-4.2-2.7-4.2 0.8-3.2 1.5-4.2 1.8-0.8 0.3-1.1 3.1-2.6 5.2-11.8 0.2-7.4 1.69-4.9 38.69 11.8 25.6 6.6-8 31.3-8.67 33.1 12.63 19.2 42.16 62.3 17.1 26.1-0.4 3.1 2.8 5.2 1.1 5.4 1 1.5 0.7 0.6-0.2 1.4-1.4 1-3.4 1.6-1.9 2.1-1.7 3.9-0.5 4.7-2.6 2.5-2.3 1.1-0.1 6.2-0.6 1.9 1 1.7 3 0.3-0.4 1.6-1.4 2-3.9 0.6zm-73.9-48.9 1.3 1.5-0.2 1.3-3.2-0.1-0.6-1.2-0.6-1.5zm1.9 0 1.2-0.6 3.6 2.1 3.1 1.2-0.9 0.6-4.5-0.2-1.6-1.6zm20.7 19.8 1.8 2.3 0.8 1 1.5 0.6 0.6-1.5-1-1.8-2.7-2-1.1 0.2v1.2zm-1.4 8.7 1.8 3.2 1.2 1.9-1.5 0.2-1.3-1.2s-0.7-1.5-0.7-1.9v-2.2z" fill="#fff"/>
  <path id="CO" d="m380.2 235.5-36-3.5-79.1-8.6-2.2 22.1-7 50.4-1.9 13.7 34 3.9 37.5 4.4 34.7 3 14.3 0.6z" fill="#fff"/>
  <path id="CT" d="m852 190.9 3.6-3.2 1.9-2.1 0.8 0.6 2.7-1.5 5.2-1.1 7-3.5-0.6-4.2-0.8-4.4-1.6-6-4.3 1.1-21.8 4.7 0.6 3.1 1.5 7.3v8.3l-0.9 2.1 1.7 2.2z" fill="#fff"/>
  <path id="DE" d="m834.4 247.2-1 0.5-3.6-2.4-1.8-4.7-1.9-3.6-2.3-1-2.1-3.6 0.5-2 0.5-2.3 0.1-1.1-0.6 0.1-1.7 1-2 1.7-0.2 0.3 1.4 4.1 2.3 5.6 3.7 16.1 5-0.3 6-1.1z" fill="#fff"/>
  <path id="FL" d="m750.2 445.2-5.2-0.7-0.7 0.8 1.5 4.4-0.4 5.2-4.1-1-0.2-2.8h-4.1l-5.3 0.7-32.4 1.9-8.2-0.3-1.7-1.7-2.5-4.2h-5.9l-6.6 0.5-35.4 4.2-0.3 2.8 1.6 1.6 2.9 2 0.3 8.4 3.3-0.6 6-2.1 6-0.5 4.4-0.6 7.6 1.8 8.1 3.9 1.6 1.5 2.9 1.1 1.6 1.9 0.3 2.7 3.2-1.3h3.9l3.6-1.9 3.7-3.6 3.1 0.2 0.5-1.1-0.8-1 0.2-1.9 4-0.8h2.6l2.9 1.5 4.2 1.5 2.4 3.7 2.7 1 1.1 3.4 3.4 1.6 1.6 2.6 1.9 0.6 5.2 1.3 1.3 3.1 3 3.7v9.5l-1.5 4.7 0.3 2.7 1.3 4.8 1.8 4 0.8-0.5 1.5-4.5-2.6-1-0.3-0.6 1.6-0.6 4.5 1 0.2 1.6-3.2 5.5-2.1 2.4 3.6 3.7 2.6 3.1 2.9 5.3 2.9 3.9 2.1 5 1.8 0.3 1.6-2.1 1.8 1.1 2.6 4 0.6 3.6 3.1 4.4 0.8-1.3 3.9 0.3 3.6 2.3 3.4 5.2 0.8 3.4 0.3 2.9 1.1 1 1.3 0.5 2.4-1 1.5-1.6 3.9-0.2 3.1-1.5 2.7-3.2-0.5-1.9-0.3-2.4 0.6-1.9-0.3-1.9 2.4-1.3 0.3-3.4-0.6-1.8-0.5-12-1.3-7.6-4.5-8.2-3.6-5.8-2.6-5.3-2.9-2.9-2.9-7.4 0.7-1.4 1.1-1.3-1.6-2.9-4-3.7-4.8-5.5-3.7-6.3-5.3-9.4-3.7-9.7-2.3-7.3zm17.7 132.7 2.4-0.6 1.3-0.2 1.5-2.3 2.3-1.6 1.3 0.5 1.7 0.3 0.4 1.1-3.5 1.2-4.2 1.5-2.3 1.2zm13.5-5 1.2 1.1 2.7-2.1 5.3-4.2 3.7-3.9 2.5-6.6 1-1.7 0.2-3.4-0.7 0.5-1 2.8-1.5 4.6-3.2 5.3-4.4 4.2-3.4 1.9z" fill="#fff"/>
  <path id="GA" d="m750.2 444.2-5.6-0.7-1.4 1.6 1.6 4.7-0.3 3.9-2.2-0.6-0.2-3h-5.2l-5.3 0.7-32.3 1.9-7.7-0.3-1.4-1.2-2.5-4.3-0.8-3.3-1.6-0.9-0.5-0.5 0.9-2.2-0.4-5.5-1.6-4.5 0.8-4.9 1.7-4.8-0.2-2.5-1.9-0.7-0.4-3.2-2.8-3.5-1.9-6.2-1.5-7-1.7-4.8-3.8-16-3.5-8-0.8-5.3 0.1-2.3 3.3-0.3 13.6-1.6 18.6-2 6.3-1.1 0.5 1.4-2.2 0.9-0.9 2.2 0.4 2 1.4 1.6 4.3 2.7 3.2-0.1 3.2 4.7 0.6 1.6 2.3 2.8 0.5 1.7 4.7 1.8 3 2.2 2.3 3 2.3 1.3 2 1.8 1.4 2.7 2.1 1.9 4.1 1.8 2.7 6 1.7 5.1 2.8 0.7 2.1 1.9 2 5.7 2.9 1.6 1.7-0.8 0.4 1.2-3.3 6.2 0.5 2.6-1.5 4.2-2.3 10 0.8 6.3z" fill="#fff"/>
  <path id="IA" d="m556.8 183.6 2.1 2.1 0.3 0.7-2 3 0.3 4 2.6 4.1 3.1 1.6 2.4 0.3 0.9 1.8 0.2 2.4 2.5 1 0.9 1.1 0.5 1.6 3.8 3.3 0.6 1.9-0.7 3-1.7 3.7-0.6 2.4-2.1 1.6-1.6 0.5-5.7 1.5-1.6 4.8 0.8 1.8 1.7 1.5-0.2 3.5-1.9 1.4-0.7 1.8v2.4l-1.4 0.4-1.7 1.4-0.5 1.7 0.4 1.7-1.3 1-2.3-2.7-1.4-2.8-8.3 0.8-10 0.6-49.2 1.2-1.6-4.3-0.4767-6.85339-1.43835-6.15578-0.58495-3.09083-2.2-3.7-1-4.6-2.7-7.8-0.86991-6.25192-2.93009-4.14808 1.7-3.8 1.2-6.1-2.7-2.2-0.3-2.4 0.7-2.4 1.8-0.3 61.1-0.6 21.2-0.7z" fill="#fff"/>
  <path id="ID" d="m175.3 27.63-4.8 17.41-4.5 20.86-3.4 16.22-0.4 9.67 1.2 4.44 3.5 2.66-0.2 3.91-3.9 4.4-4.5 6.6-0.9 2.9-1.2 1.1-1.8 0.8-4.3 5.3-0.4 3.1-0.4 1.1 0.6 1 2.6-0.1 1.1 2.3-2.4 5.8-1.2 4.2-8.8 35.3 20.7 4.5 39.5 7.9 34.8 6.1 4.9-29.2 3.8-24.1-2.7-2.4-0.4-2.6-0.8-1.1-2.1 1-0.7 2.6-3.2 0.5-3.9-1.6-3.8 0.1-2.5 0.7-3.4-1.5-2.4 0.2-2.4 2-2-1.1-0.7-4 0.7-2.9-2.5-2.9-3.3-2.6-2.7-13.1-0.1-4.7-0.3-0.1-0.2 0.4-5.1 3.5-1.7-0.2-2.9-3.4-0.2-3.1 7-17.13-0.4-1.94-3.4-1.15-0.6-1.18-2.6-3.46-4.6-10.23-3.2-1.53-2-4.95 1.3-4.63-3.2-7.58 4.4-21.52z" fill="#fff"/>
  <path id="IL" d="m618.7 214.3-0.8-2.6-1.3-3.7-1.6-1.8-1.5-2.6-0.4-5.5-15.9 1.8-17.4 1h-12.3l0.2 2.1 2.2 0.9 1.1 1.4 0.4 1.4 3.9 3.4 0.7 2.4-0.7 3.3-1.7 3.7-0.8 2.7-2.4 1.9-1.9 0.6-5.2 1.3-1.3 4.1 0.6 1.1 1.9 1.8-0.2 4.3-2.1 1.6-0.5 1.3v2.8l-1.8 0.6-1.4 1.2-0.4 1.2 0.4 2-1.6 1.3-0.9 2.8 0.3 3.9 2.3 7 7 7.6 5.7 3.7v4.4l0.7 1.2 6.6 0.6 2.7 1.4-0.7 3.5-2.2 6.2-0.8 3 2 3.7 6.4 5.3 4.8 0.8 2.2 5.1 2 3.4-0.9 2.8 1.5 3.8 1.7 2.1 1.6-0.3 1-2.2 2.4-1.7 2.8-1 6.1 2.5 0.5-0.2v-1.1l-1.2-2.7 0.4-2.8 2.4-1.6 3.4-1.2-0.5-1.3-0.8-2 1.2-1.3 1-2.7v-4l0.4-4.9 2.5-3 1.8-3.8 2.5-4-0.5-5.3-1.8-3.2-0.3-3.3 0.8-5.3-0.7-7.2-1.1-15.8-1.4-15.3-0.9-11.7z" fill="#fff"/>
  <path id="IN" d="m622.9 216.1 1.5 1 1.1-0.3 2.1-1.9 2.5-1.8 14.3-1.1 18.4-1.8 1.6 15.5 4.9 42.6-0.6 2.9 1.3 1.6 0.2 1.3-2.3 1.6-3.6 1.7-3.2 0.4-0.5 4.8-4.7 3.6-2.9 4 0.2 2.4-0.5 1.4h-3.5l-1.4-1.7-5.2 3 0.2 3.1-0.9 0.2-0.5-0.9-2.4-1.7-3.6 1.5-1.4 2.9-1.2-0.6-1.6-1.8-4.4 0.5-5.7 1-2.5 1.3v-2.6l0.4-4.7 2.3-2.9 1.8-3.9 2.7-4.2-0.5-5.8-1.8-3.1-0.3-3.2 0.8-5.3-0.7-7.1-0.9-12.6-2.5-30.1z" fill="#fff"/>
  <path id="KS" d="m485.9 259.5-43.8-0.6-40.6-1.2-21.7-0.9-4.3 64.8 24.3 1 44.7 2.1 46.3 0.6 12.6-0.3 0.7-35-1.2-11.1-2.5-2-2.4-3-2.3-3.6 0.6-3 1.7-1.4v-2.1l-0.8-0.7-2.6-0.2-3.5-3.4z" fill="#fff"/>
  <path id="KY" d="m607.2 331.8 12.6-0.7 0.1-4.1h4.3l30.4-3.2 45.1-4.3 5.6-3.6 3.9-2.1 0.1-1.9 6-7.8 4.1-3.6 2.1-2.4-3.3-2-2.5-2.7-3-3.8-0.5-2.2-2.6-1.4-0.9-1.9-0.2-6.1-2.6-2-1.9-1.1-0.5-2.3-1.3 0.2-2 1.2-2.5 2.7-1.9-1.7-2.5-0.5-2.4 1.4h-2.3l-1.8-2-5.6-0.1-1.8-4.5-2.9-1.5-2.1 0.8-4.2 0.2-0.5 2.1 1.2 1.5 0.3 2.1-2.8 2-3.8 1.8-2.6 0.4-0.5 4.5-4.9 3.6-2.6 3.7 0.2 2.2-0.9 2.3-4.5-0.1-1.3-1.3-3.9 2.2 0.2 3.3-2.4 0.6-0.8-1.4-1.7-1.2-2.7 1.1-1.8 3.5-2.2-1-1.4-1.6-3.7 0.4-5.6 1-2.8 1.3-1.2 3.4-1 1 1.5 3.7-4.2 1.4-1.9 1.4-0.4 2.2 1.2 2.4v2.2l-1.6 0.4-6.1-2.5-2.3 0.9-2 1.4-0.8 1.8 1.7 2.4-0.9 1.8-0.1 3.3-2.4 1.3-2.1 1.7z" fill="#fff"/>
  <path id="LA" d="m526.9 485.9 8.1-0.3 10.3 3.6 6.5 1.1 3.7-1.5 3.2 1.1 3.2 1 0.8-2.1-3.2-1.1-2.6 0.5-2.7-1.6 0.8-1.5 3.1-1 1.8 1.5 1.8-1 3.2 0.6 1.5 2.4 0.3 2.3 4.5 0.3 1.8 1.8-0.8 1.6-1.3 0.8 1.6 1.6 8.4 3.6 3.6-1.3 1-2.4 2.6-0.6 1.8-1.5 1.3 1 0.8 2.9-2.3 0.8 0.6 0.6 3.4-1.3 2.3-3.4 0.8-0.5-2.1-0.3 0.8-1.6-0.2-1.5 2.1-0.5 1.1-1.3 0.6 0.8 0.6 3.1 4.2 0.6 4 1.9 1 1.5h2.9l1.1 1 2.3-3.1v-1.5h-1.3l-3.4-2.7-5.8-0.8-3.2-2.3 1.1-2.7 2.3 0.3 0.2-0.6-1.8-1v-0.5h3.2l1.8-3.1-1.3-1.9-0.3-2.7-1.5 0.2-1.9 2.1-0.6 2.6-3.1-0.6-1-1.8 1.8-1.9 1.9-1.7-2.2-6.5-3.4-3.4 1-7.3-0.2-0.5-1.3 0.2-33.1 1.4-0.8-2.4 0.8-8.5 8.6-14.8-0.9-2.6 1.4-0.4 0.4-2-2.2-2 0.1-1.9-2-4.5-0.4-5.1 0.1-0.7-26.4 0.8-25.2 0.1 0.4 9.7 0.7 9.5 0.5 3.7 2.6 4.5 0.9 4.4 4.3 6 0.3 3.1 0.6 0.8-0.7 8.3-2.8 4.6 1.2 2.4-0.5 2.6-0.8 7.3-1.3 3 0.2 3.7z" fill="#fff"/>
  <path id="MA" d="m887.5 172.5-0.5-2.3 0.8-1.5 2.9-1.5 0.8 3.1-0.5 1.8-2.4 1.5v1l1.9-1.5 3.9-4.5 3.9-1.9 4.2-1.5-0.3-2.4-1-2.9-1.9-2.4-1.8-0.8-2.1 0.2-0.5 0.5 1 1.3 1.5-0.8 2.1 1.6 0.8 2.7-1.8 1.8-2.3 1-3.6-0.5-3.9-6-2.3-2.6h-1.8l-1.1 0.8-1.9-2.6 0.3-1.5 2.4-5.2-2.9-4.4-3.7 1.8-1.8 2.9-18.3 4.7-13.8 2.5-0.6 10.6 0.7 4.9 22-4.8 11.2-2.8 2 1.6 3.4 4.3 2.9 4.7zm12.5 1.4 2.2-0.7 0.5-1.7 1 0.1 1 2.3-1.3 0.5-3.9 0.1zm-9.4 0.8 2.3-2.6h1.6l1.8 1.5-2.4 1-2.2 1z" fill="#fff"/>
  <path id="MD" d="m834.8 264.1 1.7-3.8 0.5-4.8-6.3 1.1-5.8 0.3-3.8-16.8-2.3-5.5-1.5-4.6-22.2 4.3-37.6 7.6 2 10.4 4.8-4.9 2.5-0.7 1.4-1.5 1.8-2.7 1.6 0.7 2.6-0.2 2.6-2.1 2-1.5 2.1-0.6 1.5 1.1 2.7 1.4 1.9 1.8 1.3 1.4 4.8 1.6-0.6 2.9 5.8 2.1 2.34863 1.12715 1.50476 1.76606-0.85339 3.60679-1.8 2.6v2.1l0.3 0.8 2 1.3 3.4 1.1 4.3-0.1 3.1 1 2.1 0.3 1-2.1-1.5-2.1v-1.8l-2.4-2.1-2.1-5.5 1.3-5.3-0.2-2.1-1.3-1.3s1.5-1.6 1.5-2.3c0-0.6 0.5-2.1 0.5-2.1l1.9-1.3 1.9-1.6 0.5 1-1.5 1.6-1.3 3.7 0.3 1.1 1.8 0.3 0.5 5.5-2.1 1 0.3 3.6 0.5-0.2 1.1-1.9 1.6 1.8-1.6 1.3-0.3 3.4 2.6 3.4 3.9 0.5 1.6-0.8 3.2 4.2 1 0.4zm-14.5 0.2 1.1 2.5 0.2 1.8 1.1 1.9s0.9-0.9 0.9-1.2-0.7-3.1-0.7-3.1l-0.7-2.3z" fill="#fff"/>
  <path id="ME" d="m891.5 36.9004-1.80078 1.79883-4 2.90039v1l-0.79883 0.800782-2.70117-0.59961-1.29883-2.30078v-1.09961l-1.30078-0.201172h-1.29883l-2.10156 4.20117-2.89844 8.90039-1.80078 4.79883 0.19922 4.80078 0.20117 1.5-0.80078 2.69922-0.79883 1v6l1.89844 2.40039-1.5 4-2.59961 4.69922-0.79883 5.5v2.60156l-1.5-0.40039-1.30078 0.169921 9.55078 30.5586-0.0117 0.0742 0.84766 2.34961 1.31055 4.45118 0.20117 2.5 4 1.09961 0.5 3.0996 2.19922 0.9004 1.09961-6.29883 0.20117-4.40039 1.5-1.30078-1-3.19922 3.09961-3.59961 1.59961 1.5 1.30078-0.5 5.29883-3.10157 0.30078-2.89843 2.90039-0.5 1.59961-2.60157-0.19922-1.5996-6e-3 -2e-3 -0.12109-1.06445 0.0156 4e-3 -0.18736-2.04106 0.80078-1.30078-0.30078-1.09961-1.30078-1.5 2.10156-1.29883 1.79883 3.19922 1.5-0.30078 0.30078 1.30078v1.59961l1.90039 0.20117 0.5-2.70117 0.5-0.59961-1.60156-1.5 1-1.5 2.40039-1.5 1-1.5 1.80078-0.199219s0.4 2.09961 1 2.09961h1.29883l4.80078-5.5 3.40039-3.09961 1.90039-0.601562 2.09961-4.69922v-1.90039l-2.30078-3.69922-1.90039-2.09961-2.79883 0.5 0.5 1.09961-0.20117 0.5h-0.79883l-2.90039-2.30078-0.19922-4.79883-0.80078-1.90039h-6l-9.09961-29.9004-1.90039-1-6-2.40039zm20.9004 61.7988-2 0.701172-1.40039 2.19922 1.80078 1.90039s1.29883 0.10078 1.29883-0.19922 0.20117-2 0.20117-2l0.89844-0.80078zm-8.59961 7.30078-1.5 1.5 1.79883 2.90039 1.70117-0.90039-0.60156-2.40039z" fill="#fff"/>
  <path id="MI" d="m644.5 211 19.1-1.9 0.2 1.1 9.9-1.5 12-1.7 0.1-0.6 0.2-1.5 2.1-3.7 2-1.7-0.2-5.1 1.6-1.6 1.1-0.3 0.2-3.6 1.5-3 1.1 0.6 0.2 0.6 0.8 0.2 1.9-1-0.4-9.1-3.2-8.2-2.3-9.1-2.4-3.2-2.6-1.8-1.6 1.1-3.9 1.8-1.9 5-2.7 3.7-1.1 0.6-1.5-0.6s-2.6-1.5-2.4-2.1 0.5-5 0.5-5l3.4-1.3 0.8-3.4 0.6-2.6 2.4-1.6-0.3-10-1.6-2.3-1.3-0.8-0.8-2.1 0.8-0.8 1.6 0.3 0.2-1.6-2.6-2.2-1.3-2.6h-2.6l-4.5-1.5-5.5-3.4h-2.7l-0.6 0.6-1-0.5-3.1-2.3-2.9 1.8-2.9 2.3 0.3 3.6 1 0.3 2.1 0.5 0.5 0.8-2.6 0.8-2.6 0.3-1.5 1.8-0.3 2.1 0.3 1.6 0.3 5.5-3.6 2.1-0.6-0.2v-4.2l1.3-2.4 0.6-2.4-0.8-0.8-1.9 0.8-1 4.2-2.7 1.1-1.8 1.9-0.2 1 0.6 0.8-0.6 2.6-2.3 0.5v1.1l0.8 2.4-1.1 6.1-1.6 4 0.6 4.7 0.5 1.1-0.8 2.4-0.3 0.8-0.3 2.7 3.6 6 2.9 6.5 1.5 4.8-0.8 4.7-1 6-2.4 5.2-0.3 2.7-3.2 3.1zm-33.3-72.4-1.3-1.1-1.8-10.4-3.7-1.3-1.7-2.3-12.6-2.8-2.8-1.1-8.1-2.2-7.8-1-3.9-5.3 0.7-0.5 2.7-0.8 3.6-2.3v-1l0.6-0.6 6-1 2.4-1.9 4.4-2.1 0.2-1.3 1.9-2.9 1.8-0.8 1.3-1.8 2.3-2.3 4.4-2.4 4.7-0.5 1.1 1.1-0.3 1-3.7 1-1.5 3.1-2.3 0.8-0.5 2.4-2.4 3.2-0.3 2.6 0.8 0.5 1-1.1 3.6-2.9 1.3 1.3h2.3l3.2 1 1.5 1.1 1.5 3.1 2.7 2.7 3.9-0.2 1.5-1 1.6 1.3 1.6 0.5 1.3-0.8h1.1l1.6-1 4-3.6 3.4-1.1 6.6-0.3 4.5-1.9 2.6-1.3 1.5 0.2v5.7l0.5 0.3 2.9 0.8 1.9-0.5 6.1-1.6 1.1-1.1 1.5 0.5v7l3.2 3.1 1.3 0.6 1.3 1-1.3 0.3-0.8-0.3-3.7-0.5-2.1 0.6-2.3-0.2-3.2 1.5h-1.8l-5.8-1.3-5.2 0.2-1.9 2.6-7 0.6-2.4 0.8-1.1 3.1-1.3 1.1-0.5-0.2-1.5-1.6-4.5 2.4h-0.6l-1.1-1.6-0.8 0.2-1.9 4.4-1 4-3.2 6.9zm-29.6-56.5 1.8-2.1 2.2-0.8 5.4-3.9 2.3-0.6 0.5 0.5-5.1 5.1-3.3 1.9-2.1 0.9zm86.2 32.1 0.6 2.5 3.2 0.2 1.3-1.2s-0.1-1.5-0.4-1.6c-0.3-0.2-1.6-1.9-1.6-1.9l-2.2 0.2-1.6 0.2-0.3 1.1z" fill="#fff"/>
  <path id="MN" d="m464.6 66.79-0.6 3.91v10.27l1.6 5.03 1.9 3.32 0.5 9.93 1.8 13.45 1.8 7.3 0.4 6.4v5.3l-1.6 1.8-1.8 1.3v1.5l0.9 1.7 4.1 3.5 0.7 3.2v35.9l60.3-0.6 21.2-0.7-0.5-6-1.8-2.1-7.2-4.6-3.6-5.3-3.4-0.9-2-2.8h-3.2l-3.5-3.8-0.5-7 0.1-3.9 1.5-3-0.7-2.7-2.8-3.1 2.2-6.1 5.4-4 1.2-1.4-0.2-8 0.2-3 2.6-3 3.8-2.9 1.3-0.2 4.5-5 1.8-0.8 2.3-3.9 2.4-3.6 3.1-2.6 4.8-2 9.2-4.1 3.9-1.8 0.6-2.3-4.4 0.4-0.7 1.1h-0.6l-1.8-3.1-8.9 0.3-1 0.8h-1l-0.5-1.3-0.8-1.8-2.6 0.5-3.2 3.2-1.6 0.8h-3.1l-2.6-1v-2.1l-1.3-0.2-0.5 0.5-2.6-1.3-0.5-2.9-1.5 0.5-0.5 1-2.4-0.5-5.3-2.4-3.9-2.6h-2.9l-1.3-1-2.3 0.6-1.1 1.1-0.3 1.3h-4.8v-2.1l-6.3-0.3-0.3-1.5h-4.8l-1.6-1.6-1.5-6.1-0.8-5.5-1.9-0.8-2.3-0.5-0.6 0.2-0.3 8.2-30.1-0.03z" fill="#fff"/>
  <path id="MO" d="m593.1 338.7 0.5-5.9 4.2-3.4 1.9-1v-2.9l0.7-1.6-1.1-1.6-2.4 0.3-2.1-2.5-1.7-4.5 0.9-2.6-2-3.2-1.8-4.6-4.6-0.7-6.8-5.6-2.2-4.2 0.8-3.3 2.2-6 0.6-3-1.9-1-6.9-0.6-1.1-1.9v-4.1l-5.3-3.5-7.2-7.8-2.3-7.3-0.5-4.2 0.7-2.4-2.6-3.1-1.2-2.4-7.7 0.8-10 0.6-48.8 1.2 1.3 2.6-0.1 2.2 2.3 3.6 3 3.9 3.1 3 2.6 0.2 1.4 1.1v2.9l-1.8 1.6-0.5 2.3 2.1 3.2 2.4 3 2.6 2.1 1.3 11.6-0.8 40 0.5 5.7 23.7-0.2 23.3-0.7 32.5-1.3 2.2 3.7-0.8 3.1-3.1 2.5-0.5 1.8 5.2 0.5 4.1-1.1z" fill="#fff"/>
  <path id="MS" d="m604.3 472.5 2.6-4.2 1.8 0.8 6.8-1.9 2.1 0.3 1.5 0.8h5.2l0.4-1.6-1.7-14.8-2.8-19 1-45.1-0.2-16.7 0.2-6.3-4.8 0.3-19.6 1.6-13 0.4-0.2 3.2-2.8 1.3-2.6 5.1 0.5 1.6 0.1 2.4-2.9 1.1-3.5 5.1 0.8 2.3-3 2.5-1 5.7-0.6 1.9 1.6 2.5-1.5 1.4 1.5 2.8 0.3 4.2-1.2 2.5-0.2 0.9 0.4 5 2 4.5-0.1 1.7 2.3 2-0.7 3.1-0.9 0.3 0.6 1.9-8.6 15-0.8 8.2 0.5 1.5 24.2-0.7 8.2-0.7 1.9-0.3 0.6 1.4-1 7.1 3.3 3.3 2.2 6.4z" fill="#fff"/>
  <path id="MT" d="m361.1 70.77-5.3 57.13-1.3 15.2-59.1-6.6-49-7.1-1.4 11.2-1.9-1.7-0.4-2.5-1.3-1.9-3.3 1.5-0.7 2.5-2.3 0.3-3.8-1.6-4.1 0.1-2.4 0.7-3.2-1.5-3 0.2-2.1 1.9-0.9-0.6-0.7-3.4 0.7-3.2-2.7-3.2-3.3-2.5-2.5-12.6-0.1-5.3-1.6-0.8-0.6 1-4.5 3.2-1.2-0.1-2.3-2.8-0.2-2.8 7-17.15-0.6-2.67-3.5-1.12-0.4-0.91-2.7-3.5-4.6-10.41-3.2-1.58-1.8-4.26 1.3-4.63-3.2-7.57 4.4-21.29 32.7 6.89 18.4 3.4 32.3 5.3 29.3 4 29.2 3.5 30.8 3.07z" fill="#fff"/>
  <path id="NC" d="m786.7 357.7-12.7-7.7-3.1-0.8-16.6 2.1-1.6-3-2.8-2.2-16.7 0.5-7.4 0.9-9.2 4.5-6.8 2.7-6.5 1.2-13.4 1.4 0.1-4.1 1.7-1.3 2.7-0.7 0.7-3.8 3.9-2.5 3.9-1.5 4.5-3.7 4.4-2.3 0.7-3.2 4.1-3.8 0.7 1 2.5 0.2 2.4-3.6 1.7-0.4 2.6 0.3 1.8-4 2.5-2.4 0.5-1.8 0.1-3.5 4.4 0.1 38.5-5.6 57.5-12.3 2 4.8 3.6 6.5 2.4 2.4 0.6 2.3-2.4 0.2 0.8 0.6-0.3 4.2-2.6 1.3-0.6 2.1-1.3 2.9-3.7 1.6-2.4-0.3-1.5-0.2-1.6-1.3 0.3 1.3v1h1.9l0.8 1.3-1.9 6.3h4.2l0.6 1.6 2.3-2.3 1.3-0.5-1.9 3.6-3.1 4.8h-1.3l-1.1-0.5-2.7 0.6-5.2 2.4-6.5 5.3-3.4 4.7-1.9 6.5-0.5 2.4-4.7 0.5-5.1 1.5zm49.3-26.2 2.6-2.5 3.2-2.6 1.5-0.6 0.2-2-0.6-6.1-1.5-2.3-0.6-1.9 0.7-0.2 2.7 5.5 0.4 4.4-0.2 3.4-3.4 1.5-2.8 2.4-1.1 1.2z" fill="#fff"/>
  <path id="ND" d="m471 126.4-0.4-6.2-1.8-7.3-1.8-13.61-0.5-9.7-1.9-3.18-1.6-5.32v-10.41l0.6-3.85-1.8-5.54-28.6-0.59-18.6-0.6-26.5-1.3-25.2-2.16-0.9 14.42-4.7 50.94 56.8 3.9 56.9 1.7z" fill="#fff"/>
  <path id="NH" d="m881.7 141.3 1.1-3.2-2.7-1.2-0.5-3.1-4.1-1.1-0.3-3-11.7-37.48-0.7 0.08-0.6 1.6-0.6-0.5-1-1-1.5 1.9-0.2 2.29 0.5 8.41 1.9 2.8v4.3l-3.9 4.8-2.4 0.9v0.7l1.1 1.9v8.6l-0.8 9.2-0.2 4.7 1 1.4-0.2 4.7-0.5 1.5 1 1.1 5.1-1.2 13.8-3.5 1.7-2.9 4-1.9z" fill="#fff"/>
  <path id="NJ" d="m823.7 228.3 0.1-1.5 2.7-1.3 1.7-2.8 1.7-2.4 3.3-3.2v-1.2l-6.1-4.1-1-2.7-2.7-0.3-0.1-0.9-0.7-2.2 2.2-1.1 0.2-2.9-1.3-1.3 0.2-1.2 1.9-3.1v-3.1l2.5-3.1 5.6 2.5 6.4 1.9 2.5 1.2 0.1 1.8-0.5 2.7 0.4 4.5-2.1 1.9-1.1 1 0.5 0.5 2.7-0.3 1.1-0.8 1.6 3.4 0.2 9.4 0.6 1.1-1.1 5.5-3.1 6.5-2.7 4-0.8 4.8-2.1 2.4h-0.8l-0.3-2.7 0.8-1-0.2-1.5-4-0.6-4.8-2.3-3.2-2.9-1-2z" fill="#fff"/>
  <path id="NM" d="m270.2 429.4-16.7-2.6-1.2 9.6-15.8-2 6-39.7 7-53.2 4.4-30.9 34 3.9 37.4 4.4 32 2.8-0.3 10.8-1.4-0.1-7.4 97.7-28.4-1.8-38.1-3.7 0.7 6.3z" fill="#fff"/>
  <path id="NV" d="m123.1 173.6 38.7 8.5 26 5.2-10.6 53.1-5.4 29.8-3.3 15.5-2.1 11.1-2.6 16.4-1.7 3.1-1.6-0.1-1.2-2.6-2.8-0.5-1.3-1.1-1.8 0.1-0.9 0.8-1.8 1.3-0.3 7.3-0.3 1.5-0.5 12.4-1.1 1.8-16.7-25.5-42.1-62.1-12.43-19 8.55-32.6 8.01-31.3z" fill="#fff"/>
  <path id="NY" d="m843.4 200 0.5-2.7-0.2-2.4-3-1.5-6.5-2-6-2.6-0.6-0.4-2.7-0.3-2-1.5-2.1-5.9-3.3-0.5-2.4-2.4-38.4 8.1-31.6 6-0.5-6.5 1.6-1.2 1.3-1.1 1-1.6 1.8-1.1 1.9-1.8 0.5-1.6 2.1-2.7 1.1-1-0.2-1-1.3-3.1-1.8-0.2-1.9-6.1 2.9-1.8 4.4-1.5 4-1.3 3.2-0.5 6.3-0.2 1.9 1.3 1.6 0.2 2.1-1.3 2.6-1.1 5.2-0.5 2.1-1.8 1.8-3.2 1.6-1.9h2.1l1.9-1.1 0.2-2.3-1.5-2.1-0.3-1.5 1.1-2.1v-1.5h-1.8l-1.8-0.8-0.8-1.1-0.2-2.6 5.8-5.5 0.6-0.8 1.5-2.9 2.9-4.5 2.7-3.7 2.1-2.4 2.4-1.8 3.1-1.2 5.5-1.3 3.2 0.2 4.5-1.5 7.4-2.2 0.7 4.9 2.4 6.5 0.8 5-1 4.2 2.6 4.5 0.8 2-0.9 3.2 3.7 1.7 2.7 10.2v5.8l-0.6 10.9 0.8 5.4 0.7 3.6 1.5 7.3v8.1l-1.1 2.3 2.1 2.7 0.5 0.9-1.9 1.8 0.3 1.3 1.3-0.3 1.5-1.3 2.3-2.6 1.1-0.6 1.6 0.6 2.3 0.2 7.9-3.9 2.9-2.7 1.3-1.5 4.2 1.6-3.4 3.6-3.9 2.9-7.1 5.3-2.6 1-5.8 1.9-4 1.1-1-0.4z" fill="#fff"/>
  <path id="OH" d="m663.8 211.2 1.7 15.5 4.8 41.1 3.9-0.2 2.3-0.8 3.6 1.8 1.7 4.2 5.4 0.1 1.8 2h1.7l2.4-1.4 3.1 0.5 1.5 1.3 1.8-2 2.3-1.4 2.4-0.4 0.6 2.7 1.6 1 2.6 2 0.8 0.2 2-0.1 1.2-0.6v-2.1l1.7-1.5 0.1-4.8 1.1-4.2 1.9-1.3 1 0.7 1 1.1 0.7 0.2 0.4-0.4-0.9-2.7v-2.2l1.1-1.4 2.5-3.6 1.3-1.5 2.2 0.5 2.1-1.5 3-3.3 2.2-3.7 0.2-5.4 0.5-5v-4.6l-1.2-3.2 1.2-1.8 1.3-1.2-0.6-2.8-4.3-25.6-6.2 3.7-3.9 2.3-3.4 3.7-4 3.9-3.2 0.8-2.9 0.5-5.5 2.6-2.1 0.2-3.4-3.1-5.2 0.6-2.6-1.5-2.2-1.3z" fill="#fff"/>
  <path id="OK" d="m411.9 334.9-1.8 24.3-0.9 18 0.2 1.6 4 3.6 1.7 0.9h0.9l0.9-2.1 1.5 1.9 1.6 0.1 0.3-0.2 0.2-1.1 2.8 1.4-0.4 3.5 3.8 0.5 2.5 1 4.2 0.6 2.3 1.6 2.5-1.7 3.5 0.7 2.2 3.1 1.2 0.1v2.3l2.1 0.7 2.5-2.1 1.8 0.6 2.7 0.1 0.7 2.3 4.4 1.8 1.7-0.3 1.9-4.2h1.3l1.1 2.1 4.2 0.8 3.4 1.3 3 0.8 1.6-0.7 0.7-2.7h4.5l1.9 0.9 2.7-1.9h1.4l0.6 1.4h3.6l2-1.8 2.3 0.6 1.7 2.2 3 1.7 3.4 0.9 1.9 1.2-0.3-37.6-1.4-10.9-0.1-8.6-1.5-6.6-0.6-6.8 0.1-4.3-12.6 0.3-46.3-0.5-44.7-2.1-41.5-1.8-0.4 10.7z" fill="#fff"/>
  <path id="OR" d="m67.44 158.9 28.24 7.2 27.52 6.5 17 3.7 8.8-35.1 1.2-4.4 2.4-5.5-0.7-1.3-2.5 0.1-1.3-1.8 0.6-1.5 0.4-3.3 4.7-5.7 1.9-0.9 0.9-0.8 0.7-2.7 0.8-1.1 3.9-5.7 3.7-4 0.2-3.26-3.4-2.49-1.2-4.55-13.1-3.83-15.3-3.47-14.8 0.37-1.1-1.31-5.1 1.84-4.5-0.48-2.4-1.58-1.3 0.54-4.68-0.29-1.96-1.43-4.84-1.77-1.1-0.07-4.45-1.27-1.76 1.52-6.26-0.24-5.31-3.85 0.21-9.28-2.05-3.5-4.1-0.6-0.7-2.5-2.4-0.5-5.8 2.1-2.3 6.5-3.2 10-3.2 6.5-5 14.1-6.5 13.6-8.1 12.6-1.9 2.9-0.8 8.6-1.3 6 2.71 3.5z" fill="#fff"/>
  <path id="PA" d="m736.6 192.2 1.3-0.5 5.7-5.5 0.7 6.9 33.5-6.5 36.9-7.8 2.3 2.3 3.1 0.4 2 5.6 2.4 1.9 2.8 0.4 0.1 0.1-2.6 3.2v3.1l-1.9 3.1-0.2 1.9 1.3 1.3-0.2 1.9-2.4 1.1 1 3.4 0.2 1.1 2.8 0.3 0.9 2.5 5.9 3.9v0.4l-3.1 3-1.5 2.2-1.7 2.8-2.7 1.2-1.4 0.3-2.1 1.3-1.6 1.4-22.4 4.3-38.7 7.8-11.3 1.4-3.9 0.7-5.1-22.4-4.3-25.9z" fill="#fff"/>
  <path id="RI" d="m873.6 175.7-0.8-4.4-1.6-6 5.7-1.5 1.5 1.3 3.4 4.3 2.8 4.4-2.8 1.4-1.3-0.2-1.1 1.8-2.4 1.9-2.8 1.1z" fill="#fff"/>
  <path id="SC" d="m759 413.6-2.1-1-1.9-5.6-2.5-2.3-2.5-0.5-1.5-4.6-3-6.5-4.2-1.8-1.9-1.8-1.2-2.6-2.4-2-2.3-1.3-2.2-2.9-3.2-2.4-4.4-1.7-0.4-1.4-2.3-2.8-0.5-1.5-3.8-5.4-3.4 0.1-3.9-2.5-1.2-1.2-0.2-1.4 0.6-1.6 2.7-1.3-0.8-2 6.4-2.7 9.2-4.5 7.1-0.9 16.4-0.5 2.3 1.9 1.8 3.5 4.6-0.8 12.6-1.5 2.7 0.8 12.5 7.4 10.1 8.3-5.3 5.4-2.6 6.1-0.5 6.3-1.6 0.8-1.1 2.7-2.4 0.6-2.1 3.6-2.7 2.7-2.3 3.4-1.6 0.8-3.6 3.4-2.9 0.2 1 3.2-5 5.3-2.3 1.6z" fill="#fff"/>
  <path id="SD" d="m471 181.1-0.9 3.2 0.4 3 2.6 2-1.2 5.4-1.76165 4.29174-1.35871 0.13303-2.37964-1.22477-4.8-1.5-2.5-1.3-2.9 0.1-3.9 0.4-3.8 1.2-5.3-3.8-2.7-2.4-10.9 0.8-41.5-2.4-35.6-2.2 1.5-24.8 2.8-34 0.4-5 56.9 3.9 56.9 1.7v2.7l-1.3 1.5-2 1.5-0.1 2.2 1.1 2.2 4.1 3.4 0.5 2.7v35.9z" fill="#fff"/>
  <path id="TN" d="m670.8 359.6-13.1 1.2-23.3 2.2-37.6 2.7-11.8 0.4 0.9-0.6 0.9-4.5-1.2-3.6 3.9-2.3 0.4-2.5 1.2-4.3 3-9.5 0.5-5.6 0.3-0.2 12.3-0.2 13.6-0.8 0.1-3.9 3.5-0.1 30.4-3.3 54-5.2 10.3-1.5 7.6-0.2 2.4-1.9 1.3 0.3-0.1 3.3-0.4 1.6-2.4 2.2-1.6 3.6-2-0.4-2.4 0.9-2.2 3.3-1.4-0.2-0.8-1.2-1.1 0.4-4.3 4-0.8 3.1-4.2 2.2-4.3 3.6-3.8 1.5-4.4 2.8-0.6 3.6-2.5 0.5-2 1.7-0.2 4.8z" fill="#fff"/>
  <path id="TX" d="m282.8 425.6 37 3.6 29.3 1.9 7.4-97.7 54.4 2.4-1.7 23.3-1 18 0.2 2 4.4 4.1 2 1.1h1.8l0.5-1.2 0.7 0.9 2.4 0.2 1.1-0.6v-0.2l1 0.5-0.4 3.7 4.5 0.7 2.4 0.9 4.2 0.7 2.6 1.8 2.8-1.9 2.7 0.6 2.2 3.1 0.8 0.1v2.1l3.3 1.1 2.5-2.1 1.5 0.5 2.1 0.1 0.6 2.1 5.2 2 2.3-0.5 1.9-4h0.1l1.1 1.9 4.6 0.9 3.4 1.3 3.2 1 2.4-1.2 0.7-2.3h3.6l2.1 1 3-2h0.4l0.5 1.4h4.7l1.9-1.8 1.3 0.4 1.7 2.1 3.3 1.9 3.4 1 2.5 1.4 2.7 2 3.1-1.2 2.1 0.8 0.7 20 0.7 9.5 0.6 4.1 2.6 4.4 0.9 4.5 4.2 5.9 0.3 3.1 0.6 0.8-0.7 7.7-2.9 4.8 1.3 2.6-0.5 2.4-0.8 7.2-1.3 3 0.3 4.2-5.6 1.6-9.9 4.5-1 1.9-2.6 1.9-2.1 1.5-1.3 0.8-5.7 5.3-2.7 2.1-5.3 3.2-5.7 2.4-6.3 3.4-1.8 1.5-5.8 3.6-3.4 0.6-3.9 5.5-4 0.3-1 1.9 2.3 1.9-1.5 5.5-1.3 4.5-1.1 3.9-0.8 4.5 0.8 2.4 1.8 7 1 6.1 1.8 2.7-1 1.5-3.1 1.9-5.7-3.9-5.5-1.1-1.3 0.5-3.2-0.6-4.2-3.1-5.2-1.1-7.6-3.4-2.1-3.9-1.3-6.5-3.2-1.9-0.6-2.3 0.6-0.6 0.3-3.4-1.3-0.6-0.6-1 1.3-4.4-1.6-2.3-3.2-1.3-3.4-4.4-3.6-6.6-4.2-2.6 0.2-1.9-5.3-12.3-0.8-4.2-1.8-1.9-0.2-1.5-6-5.3-2.6-3.1v-1.1l-2.6-2.1-6.8-1.1-7.4-0.6-3.1-2.3-4.5 1.8-3.6 1.5-2.3 3.2-1 3.7-4.4 6.1-2.4 2.4-2.6-1-1.8-1.1-1.9-0.6-3.9-2.3v-0.6l-1.8-1.9-5.2-2.1-7.4-7.8-2.3-4.7v-8.1l-3.2-6.5-0.5-2.7-1.6-1-1.1-2.1-5-2.1-1.3-1.6-7.1-7.9-1.3-3.2-4.7-2.3-1.5-4.4-2.6-2.9-1.7-0.5zm174.4 141.7-0.6-7.1-2.7-7.2-0.6-7 1.5-8.2 3.3-6.9 3.5-5.4 3.2-3.6 0.6 0.2-4.8 6.6-4.4 6.5-2 6.6-0.3 5.2 0.9 6.1 2.6 7.2 0.5 5.2 0.2 1.5z" fill="#fff"/>
  <path id="UT" d="m228.4 305.9 24.6 3.6 1.9-13.7 7-50.5 2.3-22-32.2-3.5 2.2-13.1 1.8-10.6-34.7-6.1-12.5-2.5-10.6 52.9-5.4 30-3.3 15.4-1.7 9.2z" fill="#fff"/>
  <path id="VA" d="m834.7 265.2-0.2 2.8-2.9 3.8-0.4 4.6 0.5 3.4-1.8 5-2.2 1.9-1.5-4.6 0.4-5.4 1.6-4.2 0.7-3.3-0.1-1.7zm-60.3 44.6-38.6 5.6-4.8-0.1-2.2-0.3-2.5 1.9-7.3 0.1-10.3 1.6-6.7 0.6 4.1-2.6 4.1-2.3v-2.1l5.7-7.3 4.1-3.7 2.2-2.5 3.6 4.3 3.8 0.9 2.7-1 2-1.5 2.4 1.2 4.6-1.3 1.7-4.4 2.4 0.7 3.2-2.3 1.6 0.4 2.8-3.2 0.2-2.7-0.8-1.2 4.8-10.5 1.8-5.2 0.5-4.7 0.7-0.2 1.1 1.7 1.5 1.2 3.9-0.2 1.7-8.1 3-0.6 0.8-2.6 2.8-2.2 1.1-2.1 1.8-4.3 0.1-4.6 3.6 1.4 6.6 3.1 0.3-5.2 3.4 1.2-0.6 2.9 8.6 3.1 1.4 1.8-0.8 3.3-1.3 1.3-0.5 1.7 0.5 2.4 2 1.3 3.9 1.4 2.9 1 4.9 0.9 2.2 2.1 3.2 0.4 0.9 1.2-0.4 4.7 1.4 1.1-0.5 1.9 1.2 0.8-0.2 1.4-2.7-0.1 0.1 1.6 2.3 1.5 0.1 1.4 1.8 1.8 0.5 2.5-2.6 1.4 1.6 1.5 5.8-1.7 3.7 6.2z" fill="#fff"/>
  <path id="VT" d="m832.7 111.3 2.4 6.5 0.8 5.3-1 3.9 2.5 4.4 0.9 2.3-0.7 2.6 3.3 1.5 2.9 10.8v5.3l11.5-2.1-1-1.1 0.6-1.9 0.2-4.3-1-1.4 0.2-4.7 0.8-9.3v-8.5l-1.1-1.8v-1.6l2.8-1.1 3.5-4.4v-3.6l-1.9-2.7-0.3-5.79-26.1 6.79z" fill="#fff"/>
  <path id="WA" d="m74.5 67.7-2.3-4.3-4.1-0.7-0.4-2.4-2.5-0.6-2.9-0.5-1.8 1-2.3-2.9 0.3-2.9 2.7-0.3 1.6-4-2.6-1.1 0.2-3.7 4.4-0.6-2.7-2.7-1.5-7.1 0.6-2.9v-7.9l-1.8-3.2 2.3-9.4 2.1 0.5 2.4 2.9 2.7 2.6 3.2 1.9 4.5 2.1 3.1 0.6 2.9 1.5 3.4 1 2.3-0.2v-2.4l1.3-1.1 2.1-1.3 0.3 1.1 0.3 1.8-2.3 0.5-0.3 2.1 1.8 1.5 1.1 2.4 0.6 1.9 1.5-0.2 0.2-1.3-1-1.3-0.5-3.2 0.8-1.8-0.6-1.5v-2.6l1.8-3.6-1.1-2.6-2.4-4.8 0.3-0.8 1.4-0.8 4.4 1.5 9.7 2.7 8.6 1.9 20 5.7 23 5.7 15 3.49-4.8 17.56-4.5 20.83-3.4 16.25-0.4 9.18-12.9-3.72-15.3-3.47-14.5 0.32-1.1-1.53-5.7 2.09-3.9-0.42-2.6-1.79-1.7 0.65-4.15-0.25-1.72-1.32-5.16-1.82-1.18-0.16-4.8-1.39-1.92 1.65-5.65-0.25-4.61-3.35zm9.6-55.4 2-0.2 0.5 1.4 1.5-1.6h2.3l0.8 1.5-1.5 1.7 0.6 0.8-0.7 2-1.4 0.4s-0.9 0.1-0.9-0.2 1.5-2.6 1.5-2.6l-1.7-0.6-0.3 1.5-0.7 0.6-1.5-2.3z" fill="#fff"/>
  <path id="WI" d="m541.4 109.9 2.9 0.5 2.9-0.6 7.4-3.2 2.9-1.9 2.1-0.8 1.9 1.5-1.1 1.1-1.9 3.1-0.6 1.9 1 0.6 1.8-1 1.1-0.2 2.7 0.8 0.6 1.1 1.1 0.2 0.6-1.1 4 5.3 8.2 1.2 8.2 2.2 2.6 1.1 12.3 2.6 1.6 2.3 3.6 1.2 1.7 10.2 1.6 1.4 1.5 0.9-1.1 2.3-1.8 1.6-2.1 4.7-1.3 2.4 0.2 1.8 1.5 0.3 1.1-1.9 1.5-0.8 0.8-2.3 1.9-1.8 2.7-4 4.2-6.3 0.8-0.5 0.3 1-0.2 2.3-2.9 6.8-2.7 5.7-0.5 3.2-0.6 2.6 0.8 1.3-0.2 2.7-1.9 2.4-0.5 1.8 0.6 3.6 0.6 3.4-1.5 2.6-0.8 2.9-1 3.1 1.1 2.4 0.6 6.1 1.6 4.5-0.2 3-15.9 1.8-17.5 1h-12.7l-0.7-1.5-2.9-0.4-2.6-1.3-2.3-3.7-0.3-3.6 2-2.9-0.5-1.4-2.1-2.2-0.8-3.3-0.6-6.8-2.1-2.5-7-4.5-3.8-5.4-3.4-1-2.2-2.8h-3.2l-2.9-3.3-0.5-6.5 0.1-3.8 1.5-3.1-0.8-3.2-2.5-2.8 1.8-5.4 5.2-3.8 1.6-1.9-0.2-8.1 0.2-2.8 2.4-2.8z" fill="#fff"/>
  <path id="WV" d="m758.9 254.3 5.8-6 2.6-0.8 1.6-1.5 1.5-2.2 1.1 0.3 3.1-0.2 4.6-3.6 1.5-0.5 1.3 1 2.6 1.2 3 3-0.4 4.3-5.4-2.6-4.8-1.8-0.1 5.9-2.6 5.7-2.9 2.4-0.8 2.3-3 0.5-1.7 8.1-2.8 0.2-1.1-1-1.2-2-2.2 0.5-0.5 5.1-1.8 5.1-5 11 0.9 1.4-0.1 2-2.2 2.5-1.6-0.4-3.1 2.3-2.8-0.8-1.8 4.9-3.8 1-2.5-1.3-2.5 1.9-2.3 0.7-3.2-0.8-3.8-4.5-3.5-2.2-2.5-2.5-2.9-3.7-0.5-2.3-2.8-1.7-0.6-1.3-0.2-5.6 0.3 0.1 2.4-0.2 1.8-1v-2.2l1.7-1.5 0.1-5.2 0.9-3.6 1.1-0.7 0.4 0.3 1 1.1 1.7 0.5 1.1-1.3-1-3.1v-1.6l3.1-4.6 1.2-1.3 2 0.5 2.6-1.8 3.1-3.4 2.4-4.1 0.2-5.6 0.5-4.8v-4.9l-1.1-3 0.9-1.3 0.8-0.7 4.3 19.3 4.3-0.8 11.2-1.3z" fill="#fff"/>
  <path id="WY" d="m353 161.9-1.5 25.4-4.4 44-2.7-0.3-83.3-9.1-27.9-3 2-12 6.9-41 3.8-24.2 1.3-11.2 48.2 7 59.1 6.5z" fill="#fff"/>
  <rect id="DC" x="869" y="424.4" width="53" height="20" rx="3" ry="3" fill="#fffff3"/>
  <rect id="MD-button" x="869" y="399.4" width="53" height="20" rx="3" ry="3" fill="#fffff3"/>
  <rect id="DE-button" x="869" y="374.4" width="53" height="20" rx="3" ry="3" fill="#fffff3"/>
  <rect id="NJ-button" x="869" y="349.4" width="53" height="20" rx="3" ry="3" fill="#fffff3"/>
  <rect id="CT-button" x="869" y="324.4" width="53" height="20" rx="3" ry="3" fill="#fffff3"/>
  <rect id="RI-button" x="869" y="299.4" width="53" height="20" rx="3" ry="3" fill="#fffff3"/>
  <rect id="MA-button" x="869" y="274.4" width="53" height="20" rx="3" ry="3" fill="#fffff3"/>
  <rect id="VT-button" x="869" y="249.4" width="53" height="20" rx="3" ry="3" fill="#fffff3"/>
  <rect id="NH-button" x="869" y="224.4" width="53" height="20" rx="3" ry="3" fill="#fffff3"/>
  <rect id="HI-button" x="250" y="553" width="50" height="20" rx="3" ry="3" fill="#fffff3"/>
  <path id="NE" d="m352.4 187.699-4.30078 43.7012 33.0508 3.29883c0.0248-0.022 0.0664 0 0.0996 0l-1.44922 21.1016 21.6992 1 10.1504 0.29883 7.29883 0.25c0-6e-3 -1e-5 -0.0117 0-0.0176l0.10156 6e-3v0.0117l0.44727 0.0117 0.20703 0.0117 2e-3 -6e-3 12.2422 0.33203 10.1504 0.30078 5.47461 0.0742 0.77539 0.0137v-0.0508h0.0996v0.0508l10.0762 0.13672 5.47461 0.0762 10.9492 0.1484 5.47656 0.0762 5.47461 0.0742h4.5l-2.20117-3-2.59961-3.90039 0.0996-2.29883-0.13477-0.26172 4e-3 -2e-3 -0.19336-0.36328-0.11719-0.22461h-4e-3l-0.56641-1.06055-0.0273-0.0352 0.0293-4e-3 -0.38867-0.75-1.90039-5.19922-0.47656-5.62891 2e-3 -0.53906-0.0742-0.30859-6e-3 -0.0684-0.01 4e-3 -0.91602-3.80468-0.38867-1.87891-0.26758-1.66406 0.0274 2e-3 -0.19141-1.91601-2.29883-3.69922-1-4.69922-2.80078-7.90039-0.42773-2.27149-0.0469 8e-3 -0.19141-0.95508h0.0586l-0.35352-3-2.24023-2.94336-1.65235 0.0488-3.24609-1.48438-4.80078-1.5-2.19922-1.20117-2.59961 0.0996-3.70117 0.40039-4.10742 1.18945-0.19141-0.0215-5.90039-4.06836-2.20117-2-10.6992 0.60156-9.25977-0.5332-2e-3 -0.01-0.43359-0.0156-0.75391-0.043v0.0176l-0.10156-4e-3c-9e-5 -5e-3 9e-5 -9e-3 0-0.0137l-10.199-0.59924-10.375-0.59961-17.125-1.07812c-9.26045-0.23488-19.3016-1.11524-28.8496-1.72266z" fill="#fff"/>
  <rect id="AS-button" x="-50" y="140" width="53" height="20" rx="3" ry="3"/>
  <rect id="GU-button" x="-50" y="165" width="53" height="20" rx="3" ry="3"/>
  <rect id="MP-button" x="-50" y="190" width="53" height="20" rx="3" ry="3"/>
  <rect id="PR-button" x="-50" y="215" width="53" height="20" rx="3" ry="3"/>
  <rect id="VI-button" x="-50" y="240" width="53" height="20" rx="3" ry="3"/>
  <path id="AS" d="m -49.362623,475.78232 -0.633732,0.2835 -0.683764,1.28415 -1.41756,0.56702 v 0.41694 l 0.883891,1.10068 0.46696,0.83386 0.516993,0.48365 0.833858,1.00063 0.900567,-2.10133 -0.516992,-1.23411 0.08339,-2.2681 -0.450284,-0.36689 z m -10.389875,0.61705 -0.183449,0.3669 0.183449,0.53367 -0.03336,0.38358 0.483637,1.21743 -0.03336,0.60038 0.483638,0.8005 0.750472,0.40025 1.634362,-0.5837 1.634363,-1.30082 0.900567,-0.4336 h 0.717118 l 0.567024,-0.33355 0.05003,-0.18345 -1.817812,-0.0167 -3.602268,-0.91724 -1.734425,-0.517 z m 38.374163,8.37194 -2.65167,0.46696 -1.300819,-0.41692 -1.384205,0.38356 -0.600378,0.30019 -1.867843,-0.10006 -0.533669,0.16678 -0.867212,-0.10006 -1.784457,0.18344 -1.017308,-0.65041 -0.08339,0.41693 -0.366898,0.1501 -0.133418,0.50031 -0.550346,0.15009 -0.266834,-0.16677 -0.366898,0.20013 0.133417,0.53367 0.06671,0.93392 0.717118,1.33417 1.217433,1.1007 0.233481,0.78382 0.466961,1.05066 0.250157,1.1007 0.900567,1.33417 0.516992,0.2168 0.817182,-0.35022 0.650409,-1.0173 1.350851,-1.70107 0.783827,-0.28352 0.216803,-0.40025 1.617685,-0.26683 1.050662,0.45028 1.067338,0.61705 0.950599,0.26684 0.466961,0.23348 0.600378,0.0501 0.500315,-0.35022 0.316866,-1.76778 -0.11674,-1.06734 0.216803,-0.9506 0.216803,-2.01793 -1.417559,-1.30082 z m -72.545675,11.09032 -0.283512,0.0167 -0.567024,0.60038 -0.483637,0.31686 -0.41693,-0.18345 -0.216803,0.55035 -0.516992,-0.13343 -0.416929,0.30019 0.266834,0.48365 -0.06671,0.33354 -0.416929,0.0334 -0.23348,-0.51699 -0.200126,0.13342 -0.133418,0.30019 -0.750472,0.20012 -0.416929,0.85054 -0.266835,0.33354 -0.250158,-0.0501 -0.316866,-0.1501 -0.650404,0.23349 -0.0167,0.33354 -0.1501,0.33354 -0.36689,0.2168 -0.16678,0.38358 -0.66708,0.35022 -0.10007,0.33355 -0.16677,1.05066 0.35022,0.40025 0.05,0.38357 -0.35022,0.28352 -0.13341,-0.11675 0.0167,-0.16677 -1.03398,-0.66708 -1.3175,0.93391 0.11674,0.33355 -0.21681,0.25016 -0.23347,-0.13342 -0.56703,0.26684 -0.20013,-0.13342 -0.2168,-0.0334 -0.36689,0.23349 -0.18345,0.33354 -0.11674,0.11674 -0.16678,-0.13342 -0.05,-0.31686 -0.30019,-0.33355 -0.41692,0.11675 -0.20013,-0.21681 v -0.35022 l -0.81718,0.30018 -1.13405,0.46697 -0.2168,-0.16678 -0.35022,0.26684 -0.38358,0.25016 -0.15009,-0.517 -0.28351,-0.60037 -0.3669,0.41693 -0.46696,0.16677 -0.4336,-0.15009 -0.0834,0.31686 -0.45028,0.0167 -0.28352,-0.21681 -0.2835,-0.20012 -0.33355,0.45028 -0.76715,-0.0167 -0.70044,0.35022 0.0167,0.61705 -0.70044,0.35022 -0.05,0.38358 -0.25016,-0.0334 -0.4336,-0.31686 -0.18345,0.0334 -0.38358,0.30019 -0.58369,0.75047 -0.75048,0.46696 -0.40025,1.13404 -0.33354,0.0834 -0.46696,0.25016 -0.25016,0.26683 0.50032,0.33355 0.75047,0.13342 0.53366,0.0667 0.33355,0.61706 1.81781,0.40025 0.90057,-0.85054 0.41692,0.23349 0.21681,0.60037 0.80051,0.2168 0.81718,-0.0667 1.30082,0.78382 -0.18346,1.21744 0.36691,0.80051 0.13341,1.00062 1.20076,0.75047 1.05066,0.45029 0.55035,-0.40025 0.93391,0.23348 -0.4336,0.76715 0.16677,0.81718 0.43361,-0.05 0.61705,-1.06735 0.16677,-1.06734 0.70044,-0.10006 1.00063,1.08402 0.36691,-0.38358 0.75046,-1.06733 1.26747,-1.38421 0.55035,-0.41693 0.28351,-0.81718 0.8005,-0.75047 0.817183,-0.46697 -0.150094,-0.81718 -0.767149,-1.40088 0.783826,-0.51699 0.633733,-0.40025 0.550346,0.30019 -0.08339,0.73379 -0.35022,0.38357 0.333543,0.0667 0.450284,-0.41694 0.366898,-1.15073 0.93392,-0.95059 1.217434,-0.91725 0.567023,0.10007 0.366898,-0.75048 -0.900567,-0.8005 1.350851,-0.78382 -0.333543,-0.40026 h -0.717119 l -0.133417,-0.83386 0.166772,-0.26683 -0.233481,-0.11674 -1.017307,0.35022 -1.250787,-0.60037 -0.483638,-0.26685 0.650409,-0.36689 0.817182,0.31686 0.767149,-0.0834 0.550347,-0.517 1.033984,0.11675 0.867213,0.33353 0.366898,-0.0667 0.500314,0.33355 -0.316866,0.26683 0.200126,0.70044 0.266835,1.23412 -0.200126,0.4336 0.23348,0.16677 0.383575,-0.18345 0.850535,-0.0334 2.051292,-0.45029 0.450284,-0.85053 0.400252,-0.05 0.933917,0.0834 0.150094,-0.50031 0.65041,-0.50032 0.100063,-0.31686 0.917243,-0.31687 0.233481,-0.23348 0.516993,-0.10006 0.750472,0.46696 0.416929,0.51699 0.05003,0.38357 -0.333544,0.46696 0.550347,0.60038 1.284141,-0.66708 1.06734,-0.38358 0.11674,-0.30019 0.450283,-0.20013 0.383575,0.18345 0.600378,-0.13342 0.400252,-0.40025 0.800504,0.0334 0.466961,-0.38358 0.08339,-0.4336 0.516992,-1.3175 -0.433606,-0.88389 0.416929,-1.13405 -0.416929,-0.0167 -0.483638,0.36689 -0.88389,0.05 -0.466961,-0.31686 -0.717118,0.86721 -0.46696,-0.13341 -0.266836,0.75047 0.100064,0.58369 -0.200126,0.30019 -0.433607,0.11675 -0.23348,-0.21681 -0.06671,-0.30019 -0.950599,-0.45028 -0.850535,-0.25016 -0.133417,0.53367 h -0.150095 l -0.183449,-0.23348 -0.283512,-0.20013 -0.483637,-0.0167 -0.100063,-0.46696 -0.350221,0.20013 -0.650409,0.2835 -0.65041,0.35023 -0.500315,0.16677 -0.650409,-0.46696 0.867212,-0.66709 -0.433606,-0.30019 -0.133418,0.30019 -0.283511,-0.0501 -0.300184,-0.43361 -0.683764,0.28352 -0.266835,-0.3669 -0.06671,0.0334 -0.03336,0.46697 -0.150095,0.33353 -0.316866,-0.0667 0.03336,-0.26683 -0.283512,-0.21681 -0.166771,0.30019 0.116739,0.63374 -0.650409,0.10006 -0.166771,0.40025 -0.350221,-0.10006 0.03336,-0.43361 -0.06671,-0.40025 0.266835,-0.41693 -0.250158,-0.16677 -0.300189,0.31686 -0.400251,0.31687 -0.18345,-0.4336 -0.11674,-0.6671 -0.200126,0.0167 -0.366898,0.26683 -0.35022,-0.1501 -0.41693,0.40026 -0.35022,0.2168 -0.483637,-0.0667 0.01667,-0.46695 0.516992,-0.66709 -0.01667,-0.5837 z m 17.861241,6.13719 -1.033984,0.21681 -0.416929,0.66709 0.11674,0.48364 1.217433,0.38357 0.783827,-0.16677 0.30019,-0.66709 -0.333544,-0.61706 -0.633733,-0.2835 z m -43.527401,-29.01827 0.0334,-0.35022 0.45028,-0.30019 2.00126,-0.35022 h 0.35022 l 0.65041,0.40025 0.25016,0.45029 0.05,0.40025 -0.31687,0.35022 -0.65041,0.45028 -0.80051,0.65041 -0.48363,0.1501 -0.55035,-0.25016 -0.85053,-0.93392 z" fill="#fff"/>
  <path id="GU" d="m -92.506451,414.6605 c 0,0 0.116741,0 0.116741,0 0.433606,0 0.867212,0.13342 1.400881,0.26683 0.65041,0.13342 0.867213,1.06734 1.400883,1.20076 0.550346,0.26684 0.667087,0.8005 1.084016,1.20075 0.11674,0.13342 0.216803,0.40026 0.333543,0.40026 0.750467,0.8005 -0.867213,1.601 0.983948,1.06733 0,0 1.400882,0.6671 1.617685,0.6671 0.65041,0.13341 1.41756,0.13341 1.951229,0.26683 0.650409,0.13342 -0.65041,1.20075 -0.967276,1.86784 -0.333543,0.53367 -0.11674,1.46759 -0.11674,2.13468 0,0.8005 -0.100063,1.33417 -0.316867,1.86784 -0.116739,0.66709 -0.550346,1.06734 -0.867212,1.33417 -0.333544,0.40025 -0.983953,0.66709 -1.517622,0.80051 -0.65041,0.13342 -0.65041,0.66708 -1.634358,0.66708 -0.433606,0 -0.533669,1.33418 -0.650409,1.73443 -0.433607,0.8005 -1.18408,0 -1.517623,1.06734 -0.216803,0.66708 -0.533669,0.66708 -0.967275,1.06733 -0.450284,0.40026 -0.983953,0.6671 -1.417559,0.80051 -0.650411,0.40025 -1.084017,0.66709 -1.951229,0.66709 -0.333544,0 -0.983953,1.20075 -1.084016,1.33417 -0.433606,0.53367 -0.550346,0.93392 -0.983953,1.20076 -0.216803,0.13342 -1.300819,-0.13342 -1.734426,0 -0.100063,0 0,1.86784 0,2.13467 0,0.26684 -0.86721,0.80051 -0.96727,0.93393 -0.11674,0.26683 0.316861,1.601 0.316861,2.13467 0,0.66709 0,1.4676 -0.100061,2.00126 -0.11674,0.66709 -0.11674,1.33418 -0.86721,1.33418 -0.76715,0 0.4336,1.06733 0.53367,1.20076 0.2168,0.26683 0.2168,1.46758 0.33354,1.86784 0.216801,0.93391 -0.43361,1.20075 -0.43361,2.00126 0,0 -1.08401,0.8005 -1.20075,0.8005 -0.43361,0.26684 -0.75047,0.80051 -1.08402,1.06734 -0.53367,0.53366 -0.65041,0.8005 -1.08402,1.20076 -0.4336,0.40025 -1.08401,0.40025 -1.73442,0.53366 -0.65041,0.13342 -1.18408,0.26684 -1.95123,0.26684 -0.4336,0 -0.96727,-0.8005 -1.18407,-1.06734 -0.55035,-0.66709 -0.76716,0.26684 -1.08402,-0.93392 0,-0.13342 -0.43361,-1.06734 -0.55035,-1.60101 -0.2168,-0.8005 -0.10006,-1.20076 -0.31686,-1.86784 -0.11675,-0.53367 -0.55035,-0.80051 -0.65041,-1.33418 -0.2168,-0.66708 -0.11674,-1.46759 -0.43361,-2.13467 -0.33354,-0.66709 -0.98395,-0.40025 -0.98395,-1.60101 0,-0.93393 0.33354,-1.06734 0.65041,-1.73443 0.2168,-0.40024 0.4336,-1.20075 0.55035,-1.73442 0.10006,-0.53367 0.6504,-1.20076 0.86721,-1.73443 0,-0.13341 -0.11675,-0.53367 -0.11675,-0.8005 l -3.3521,-3.20202 c 0.65041,-1.20075 0.75047,-0.8005 1.73442,0 0.53367,0.40026 0.96728,0.40026 1.61768,0.26684 0.55035,-0.13342 0.43361,-1.73443 0.43361,-0.40026 0,0.93393 -0.2168,-0.13341 0.55035,-0.40025 1.30082,-0.53366 1.18408,-0.40025 0.10006,0.40025 -0.2168,0.13342 1.20076,0.66709 0.86721,-0.66708 -0.2168,-0.66709 -1.08401,0 -0.86721,-1.06734 0.11674,-0.40025 2.06797,0.13341 2.18471,0.13341 0.53367,0.13342 0.96728,-0.8005 1.61769,-0.8005 0.53366,0 1.30082,-0.26683 2.06797,-0.26683 0.53366,0 1.50094,-0.26684 1.95122,-0.40026 0.85054,-0.26683 1.18408,-0.26683 1.73443,-0.66708 0.416924,-0.26683 -0.23348,-1.86784 -0.33355,-2.00126 -0.2168,-0.66709 1.851167,0 1.95123,0 0.867213,0.13342 0.967276,-0.93392 1.084017,-1.33417 0.216803,-0.93393 0.316866,-1.20076 1.084015,-1.60101 0.867213,-0.40025 1.084016,-1.06735 1.084016,-2.00126 0,-1.33418 0.433606,-1.73443 0.650409,-2.80177 0.100063,-0.8005 -0.11674,-1.06734 0.433606,-1.86784 0.650411,-0.8005 0.967277,-1.06734 1.400883,-1.86784 0.333543,-0.66709 0.333543,-1.20076 0.333543,-2.00126 0,-0.80051 0.216804,-0.80051 -0.433606,-1.33417 z" fill="#fff"/>
  <path id="MP" d="m -26.631643,325.85458 h -0.600378 l -0.366898,0.1501 -0.283512,0.2835 -0.533669,0.58371 -0.400252,0.23348 -0.917244,0.18344 -0.967276,0.35022 -0.700441,0.46696 -0.166772,0.38358 -0.100063,0.31686 -0.650409,0.10007 -0.750473,0.21681 -0.216803,0.75047 -0.06671,0.65041 -0.316866,0.10006 -0.600379,0.05 -0.783827,0.51699 -0.717117,0.53367 h -0.516993 l -0.500315,0.21681 -0.500315,1.18407 -0.35022,1.63437 v 1.50094 l 0.08339,0.70044 -0.05003,0.75048 -0.150095,0.70043 -0.216803,0.56703 -0.266835,1.11737 0.333544,0.9506 0.800503,0.55034 1.084017,-0.0167 0.800503,-0.0834 0.333544,0.36689 0.366898,0.46696 0.867212,0.18345 0.750473,-0.18345 0.416929,-0.51699 0.05003,-0.65041 -0.41693,-0.68376 -0.500314,-1.18408 0.183448,-1.36753 0.700442,-1.11737 1.050661,-0.33354 0.933921,0.05 0.633732,-0.25016 0.366898,-0.55035 0.116741,-0.90057 -0.166772,-0.98394 -0.383575,-0.21681 -0.533669,0.0334 -0.483638,-0.40025 -0.150095,-0.41693 0.383575,0.11674 0.516992,0.0834 0.18345,-0.517 0.300188,-0.71712 0.667087,-0.51699 0.617055,-0.45028 0.11674,-0.60038 0.23348,-0.9506 0.400253,-0.65041 0.516992,-0.65041 0.667087,-0.75047 0.300188,-0.56702 v -0.51699 l -0.46696,-0.33355 z m -16.010081,17.07742 -0.333543,0.16677 -0.266835,0.26684 -0.316866,0.38357 -0.383576,0.53367 -0.46696,0.71711 -0.316866,0.68377 -0.133417,0.53367 0.0667,0.33354 0.100063,0.20013 h -0.150094 l -0.23348,-0.11674 -0.400253,-0.0834 -0.400251,0.20012 -0.833859,0.90057 -0.617055,1.31749 -0.200126,1.40089 0.08339,0.517 0.08339,0.36689 0.133417,0.18345 0.333543,-0.0667 0.333544,0.26684 0.700441,0.98395 0.583701,1.31749 0.166771,1.1007 -0.01667,0.5837 0.100063,0.73379 0.183449,0.81719 0.266834,0.76715 0.416929,0.90056 0.350221,0.43361 0.41693,0.0167 0.533669,-0.33355 0.900567,-0.76715 0.500315,-0.65041 0.166772,-0.61705 -0.11674,-0.65041 -0.05003,-0.43361 0.166772,-0.31686 0.366897,-0.10006 0.316867,-0.16678 -0.200127,-0.75047 0.316867,-0.23348 0.416929,-0.15009 0.133418,-0.3669 v -0.61706 l -0.150095,-0.86721 -0.166772,-1.01731 -0.166772,-1.25079 -0.150095,-1.35085 -0.100062,-1.31749 -0.133418,-1.20076 -0.266834,-1.13405 -0.350221,-0.91724 -0.35022,-0.5837 -0.300189,-0.26684 -0.23348,-0.16677 -0.350221,-0.05 z m -7.037765,21.66364 -0.600378,0.0667 -0.583701,0.18344 -0.500315,0.23349 -0.433606,0.28351 -0.333543,0.35021 -0.200126,0.33355 0.05003,0.53367 0.316866,0.26683 0.23348,0.11674 0.266835,0.0667 h 0.316866 l 0.333544,-0.0334 0.383574,-0.13342 0.450284,-0.18345 0.483638,-0.25015 0.516992,-0.33355 0.366898,-0.31686 0.216803,-0.28352 0.05003,-0.30019 -0.100063,-0.23347 -0.266835,-0.20013 -0.383575,-0.11674 -0.53367,-0.05 z m -12.090947,19.34551 -2.434866,0.41693 -2.584961,1.01731 -3.252048,1.36753 -2.434866,1.45092 -1.117371,1.05066 -0.617054,1.13404 -0.08339,1.01731 0.533669,0.75047 0.533669,0.0167 0.483639,-0.41693 0.11674,-0.40026 -0.533669,0.18346 -0.30019,-0.05 0.567024,-0.61706 0.650409,-0.20012 1.684394,0.73379 1.467591,0.65041 0.950599,0.0667 0.383574,-0.05 0.166773,0.38357 0.366897,0.5837 0.867213,-0.18345 2.268094,-2.15135 1.00063,-1.3175 0.400253,-0.23347 0.200126,0.16677 0.483638,-0.33355 0.767149,-0.40025 0.867213,0.05 0.667087,0.0834 -0.08339,-0.65041 -0.06671,-0.88389 0.366898,-0.71712 0.550346,-0.85053 -0.366898,-0.85054 -0.850535,-0.60038 -1.584331,-0.23347 z" fill="#fff"/>
  <path id="PR" d="m 873.30475,568.51164 -1.25043,0.1755 -0.52651,0.19744 -0.351,0.1755 -0.8775,0.89944 h -0.32906 l -0.0219,0.5265 v 0.52651 l 0.0219,0.63619 0.5923,0.78975 -0.022,1.07494 -0.1755,0.1755 h -0.17546 l -1.84275,1.25044 -0.702,0.351 -0.5265,0.19744 -1.60145,0.5265 h -0.351 l -0.1755,0.351 0.1755,0.351 1.60145,2.85189 0.5265,0.1755 h 0.702 l 1.07494,1.60145 0.52651,0.89943 -0.13163,1.14076 0.76781,0.54844 0.35101,0.54844 -0.17551,0.5265 -0.98719,1.16269 -0.48262,0.26325 0.39487,0.351 0.26326,0.39488 -0.19745,0.57038 -0.50456,0.10968 0.022,0.50457 0.26325,0.19743 0.0658,0.83364 -0.61426,0.65813 -0.30712,0.98718 0.19744,0.48263 -0.24132,0.26326 -0.0219,0.65812 -0.35101,0.50456 0.39489,0.022 1.03106,0.37294 0.41682,0.1755 0.0219,0.63619 -0.702,0.5265 -0.8117,0.0659 -0.68006,0.50456 0.0658,1.44788 -0.0658,0.48264 0.78976,0.13162 0.19743,0.32906 -0.0439,0.48262 0.1755,0.17551 h 0.5265 v -0.351 l -0.351,-0.15357 v -0.37294 l 0.351,-0.702 h 0.702 l 0.17551,0.43876 2.65444,0.46068 0.74588,-0.0659 -0.0659,-0.57037 0.74588,-0.0877 0.13162,-0.48263 2.43507,-0.13163 0.37294,0.15357 0.19744,-0.13163 0.96526,-0.0658 0.68006,1.03106 v 0.17551 l 1.07495,0.5265 -0.0439,0.46069 0.351,0.0219 0.10969,-0.28519 1.16269,0.50456 h 0.1755 l 0.1755,-0.351 -0.5265,-0.24131 -0.0439,-0.24132 1.11881,-0.59231 0.52651,0.351 2.30344,-0.351 0.39488,-0.30713 -0.39488,0.30713 h 1.053 l 0.50457,-0.022 0.24132,-0.46069 1.31624,-0.43875 -0.0219,-0.61425 -0.63618,0.26325 0.0877,-0.81169 0.19745,-0.022 0.24131,0.15357 0.24131,-0.37294 0.54844,-0.30713 0.28519,0.30713 0.54844,-0.17551 -0.0439,0.48264 -0.37294,0.68006 0.21938,0.19744 0.48263,-0.74588 h 1.55757 l 0.43875,0.48262 0.54844,0.15357 0.74588,0.1755 0.19743,0.43875 1.00913,-0.26325 0.85557,-0.50457 0.81169,0.0659 0.0659,0.74588 0.63619,-0.1755 h 0.65812 l 0.52651,0.39488 0.5265,-0.0439 1.5795,-0.65812 1.42595,-0.54844 0.8775,-0.1755 h 0.85556 0.74588 l 0.17551,0.1755 0.351,0.19744 0.17549,0.1755 0.65813,0.41681 0.0878,0.43875 0.50456,0.19744 0.32906,-0.10969 1.42595,1.00913 0.5265,-0.5265 0.351,-0.72394 0.17551,-0.1755 1.053,-0.351 0.37294,-0.1755 h 0.702 l 0.8775,0.8775 0.37294,0.24132 0.0878,0.63619 h 0.21938 l 0.2413,-0.0658 0.37294,0.0219 0.65813,0.41681 h 0.351 l 0.87751,0.1755 0.17549,-0.1755 0.54845,-1.07494 0.1755,-0.1755 0.351,-0.1755 1.60144,0.72394 -0.17549,0.1755 v 0.1755 l -0.65813,0.19744 -0.54845,-0.43875 -0.50456,0.0439 0.21937,0.85556 0.52651,0.13163 0.30713,-0.37293 h 0.702 l 0.89944,0.28519 0.72393,-0.4607 0.78976,-0.41681 2.30344,-1.07494 h 0.52651 l 0.98719,0.68006 0.46069,-0.43875 0.50456,-0.1755 0.351,-0.61426 0.17551,-0.17549 h 0.52649 l 0.54845,0.17549 0.5265,0.351 0.351,0.19745 2.65445,-0.54845 0.351,-0.17549 1.51369,-0.54845 1.66725,-1.07494 0.52651,-0.17549 0.10969,0.30713 h 0.21938 l 0.0877,-0.94332 -0.21937,-0.59232 0.15356,-0.54843 0.72394,-0.70201 0.351,0.351 h 0.37294 l 0.37294,-0.37293 -0.21937,-0.32907 v -0.702 l 0.5265,-0.28519 0.5265,-2.0402 0.5265,-0.89944 0.351,-0.54844 0.83364,-0.28519 0.0658,-0.61425 0.17549,-0.15356 0.351,-0.37294 0.52651,-0.1755 0.59231,0.19744 0.50457,-0.022 0.15356,-0.5265 0.94331,0.0658 0.46069,-0.61426 h 0.37294 l 0.24132,0.39488 h 0.81168 l 0.39488,-0.39488 -0.5265,-1.16269 0.74588,-0.022 0.48262,1.053 0.48263,-0.0439 -0.24131,-0.59231 0.89944,-0.15357 -0.10969,-0.351 -0.32907,-0.26325 -0.48262,-0.59231 0.1755,-0.41682 -0.78976,-0.0439 -0.50456,-0.41681 0.1755,-0.39488 -0.54843,-0.50456 0.52649,-0.702 0.17551,-1.66726 -0.52651,-0.54844 0.65813,-0.74588 0.0439,-0.61425 0.37294,-0.83362 -0.43875,-0.15356 -0.46068,0.46068 v 0.1755 l -0.351,0.19744 -0.24132,-0.46068 -0.48263,0.78975 -0.83363,-0.0439 -1.44788,-0.10968 -0.65812,-0.24132 -0.1755,-0.76781 -0.57038,-0.0877 -0.37294,0.39487 -0.702,-0.19743 -0.85557,-0.89944 0.0439,-0.61426 -0.96525,0.50457 -0.351,-0.0659 -0.28518,-0.1755 H 935.432 l -0.72394,-0.70201 v -0.17549 l -0.351,-0.17551 -2.10601,-0.46068 -0.96525,-0.61426 -1.18463,0.351 -1.60144,-0.351 -1.75501,-0.351 v 0 l -0.15356,0.48263 -0.30713,0.351 -0.94331,-0.13163 -0.5265,-0.2413 -0.30713,-0.26326 -0.57038,-0.0877 -1.97438,-0.48263 -1.60144,-0.1755 0.81168,0.48263 0.32907,0.48262 0.87751,0.24132 -0.0439,0.32906 -0.74587,0.50456 -0.37294,-0.0439 -0.0878,-0.74588 -0.81169,-0.13162 -0.46069,-0.39487 -0.0439,-0.52651 -0.78975,0.78975 -0.98719,-0.10969 -0.351,-0.28519 -0.10968,-0.46068 -0.32907,-0.0878 v 0 l -0.48263,0.17551 -0.78975,-0.0219 -1.38207,-0.21938 -0.76781,-0.57038 h -0.41682 l -0.68006,0.43876 -0.83363,-0.32907 -0.72394,0.32907 -0.92138,-0.59232 -0.68006,0.0439 -1.1627,-0.30712 -0.32906,0.13162 -0.76782,-0.26325 -1.99631,0.43875 -0.351,0.21937 -0.351,0.37295 -0.351,0.1755 h -0.72395 l -0.92137,-0.39488 -0.37294,0.0878 -0.48264,-0.0878 -0.48262,-0.39487 -0.5265,-0.0878 -0.0658,0.28519 -0.65812,-0.13163 -0.65813,-0.39488 -1.1627,0.351 -1.95244,-0.52649 v 0 l -1.95245,0.351 -0.702,0.17549 -0.1755,0.17551 -1.03106,-0.0878 -0.0878,0.48263 -1.36013,-0.0219 h -0.351 l -1.07494,-0.54844 v 0 l -0.94332,-0.41681 -1.53563,-0.0439 -0.87751,0.28518 -1.42594,-0.0878 -0.50456,-0.21938 -1.44788,0.48262 h -0.1755 l -1.57951,-0.351 h -0.37294 l -0.5265,0.17551 h -0.1755 l -2.82995,-1.07494 -1.77694,-0.32907 -1.75501,-0.0439 h -0.351 z m -18.42757,6.25221 -0.351,0.1755 0.17551,0.37294 0.37294,0.1755 0.17549,-0.1755 -0.17549,-0.54844 z m 104.11576,2.50089 v 0 l 0.37294,1.053 0.1755,0.54844 0.52651,0.351 0.41681,0.50456 0.57037,0.68007 0.39488,0.13162 0.1755,-0.54843 -0.32907,-0.351 -0.50455,-0.21938 -0.21938,-0.54844 0.50456,0.0658 0.61425,0.17551 0.19744,0.46069 0.48263,0.41681 0.54844,-0.10969 -0.1097,-0.76781 0.50457,0.24132 0.21938,-0.13164 -0.41682,-0.63619 -0.39487,-0.26324 -1.25044,-0.702 -1.57951,0.10968 z m -3.24676,9.30153 -0.8775,0.1755 -1.00913,-0.022 -0.28519,0.57038 -1.31626,0.1755 -3.70745,1.22851 -1.42594,0.17549 v 0.72394 l 0.351,0.54845 0.5265,0.351 0.70201,0.1755 h 0.89943 l 0.78976,-0.43876 2.56669,-0.32906 0.26326,0.63619 1.99632,-0.8775 1.62337,-0.43876 0.65813,-1.09687 1.27239,0.63619 0.37293,-0.41681 1.40401,-0.17551 1.36013,-0.1755 -0.0439,-0.19744 -0.76782,-0.39487 -0.81169,0.13162 -0.26325,-0.26325 h -0.1755 l -1.05301,-0.1755 -1.755,-0.37294 z m -121.79745,1.9305 -1.053,0.37294 v 0.17551 l -0.351,1.60144 0.5265,0.54844 0.54844,0.17549 1.053,0.70201 1.25045,-0.351 1.2285,-1.25044 v -0.52651 l -0.1755,-0.72394 -0.5265,-0.72394 -1.60144,0.37294 z" fill="#fff"/>
  <path id="VI" d="m 1003.8333,554.80065 -0.044,0.57038 0.5046,0.19744 0.088,0.89944 0.7898,0.87751 0.4387,-0.83364 0.5265,-0.0439 -0.8336,-1.33819 -0.9214,-0.24131 -0.5703,-0.0878 z m -3.2247,2.85189 0.1973,0.72394 0.1975,0.43875 1.2505,0.59232 0.7678,1.07494 -0.4827,0.65813 -1.2723,-0.0878 -0.5485,-0.30713 -0.3729,-1.20657 -1.29434,-0.8775 0.1316,1.18463 -1.00907,-0.39488 -0.7898,0.21938 -1.2065,-0.37294 h -2.0842 l -0.5703,1.51369 -1.404,-0.83362 -0.2414,0.72394 -1.6233,0.28519 -1.6673,0.30712 -0.72393,1.09688 1.51373,1.44788 0.5704,-0.0658 0.1096,-0.32906 0.9872,-0.15357 0.1755,0.30713 2.3255,-1.2285 2.3034,1.07494 0.6581,1.755 0.4169,-0.54844 0.4826,0.0219 v 1.29432 l 0.3509,0.13162 1.053,-0.50456 0.78977,-0.83363 0.85554,-0.0877 0.4388,-0.59232 0.5046,-0.24131 0.8775,-0.10969 1.0969,1.053 -0.7898,0.41682 0.1755,0.30712 0.7021,0.65813 -0.044,0.48263 1.2723,0.61425 0.6581,0.43876 0.6142,0.30712 0.5924,0.13163 0.5265,-0.43875 1.6014,0.68006 0.2853,0.65813 0.9433,0.0219 0.7897,-0.61426 -0.5485,-0.26325 v -0.63619 l 0.5924,-0.46069 1.1627,-0.351 1.3162,0.96526 0.2852,-0.28519 -0.066,-0.30713 0.4388,-0.0658 0.5046,0.24131 0.1096,-0.32906 -0.5703,-0.41681 0.1097,-0.48264 0.6581,0.1097 0.4826,-0.17551 -0.2632,-0.41681 -0.8775,0.26326 -0.7678,0.37293 -0.3292,-0.15357 0.4389,-0.96525 -0.3072,-0.32906 -0.6143,-0.76782 h -0.6581 l -0.9213,-0.78975 -0.1098,-0.702 -2.1498,-0.68007 -1.0092,-0.0439 -0.5484,-1.07494 -0.4826,0.24132 -0.5266,-0.21938 -1.0091,-0.351 -1.2723,-0.24132 -0.8556,-0.81169 -0.3291,-0.48262 -0.6142,-0.351 -0.5923,-0.26326 -0.7678,-0.65812 z m 27.9703,2.17182 -0.351,0.28519 -0.1096,0.43875 0.9872,0.13162 v 0.78976 l -0.1756,0.65812 -0.5922,-0.28518 -0.2633,0.19743 -0.5485,0.50457 -0.4607,0.022 -0.3729,-0.351 -0.4387,-0.0878 -0.4387,0.5265 -1.0311,-0.15356 0.1316,0.65813 -0.3071,0.17549 -0.5924,-0.0219 -0.1316,-0.5265 -0.066,-0.41681 -0.4168,0.30712 0.044,1.25044 -1.4919,0.81169 -0.044,1.31625 0.5923,0.70201 0.724,-0.37294 0.1755,0.39487 -0.6582,0.54845 0.3072,0.30713 0.4167,-0.1097 0.2194,-0.26324 0.1317,0.13162 -0.088,0.26325 0.2633,0.48263 0.3948,-0.1755 -0.1755,-0.48263 0.7678,-0.10969 0.1316,-0.702 0.9872,0.0878 -0.1096,1.27237 h 0.2632 l 0.088,-0.65812 -0.1316,-0.83363 0.4167,0.0658 0.022,0.50456 0.4607,0.26325 0.4607,-0.17549 1.1407,-0.96526 0.2414,0.30713 1.755,0.96525 0.1535,-0.5265 0.373,0.30712 0.1755,-0.30712 0.8555,0.0877 -0.2194,0.85557 0.1755,0.65812 h 0.1536 l 0.3072,-0.65812 0.2193,0.351 0.5485,0.41681 0.351,-0.28519 0.4607,-0.13162 -0.1536,0.57038 0.5265,0.13162 0.044,0.72394 0.351,-0.30713 -0.3729,-1.51369 0.4826,-0.0658 -0.2852,-0.54843 0.5046,-0.59232 -0.066,-0.351 h -0.329 l -0.088,-0.21938 0.1535,-0.13162 0.044,-0.46069 -0.2851,-0.32906 -0.2194,0.26324 -0.3071,-0.10968 -0.3291,-0.52651 -0.4608,-0.0219 -0.329,-0.26325 0.066,-0.28519 -0.3071,-0.81169 h 0.7459 l 0.2413,0.54843 0.702,-0.15355 0.066,-0.43876 -0.5266,-0.28518 0.3511,-0.92139 0.4168,0.17551 0.8336,-0.41682 0.1755,0.21938 -0.1316,0.74587 v 0.52651 l 0.2413,0.63618 0.724,-0.96524 1.4259,0.57037 v 0.68006 l -0.5265,0.76782 0.8337,0.24131 0.5045,0.0439 0.2193,-0.81169 0.1975,-0.21938 0.3291,0.52651 0.1974,0.0877 0.088,-0.21937 -0.373,-0.61425 0.3291,-0.21938 -0.022,-0.46069 -1.7769,-0.81168 -0.1756,0.351 -0.2852,0.0219 -0.2852,-0.52651 -0.8994,-0.351 -0.088,-0.65813 -0.9653,-0.41681 -1.3601,0.17549 -0.3071,-0.43875 -0.8556,-0.43874 -0.7678,0.13162 -0.044,0.46069 -0.7459,-0.15357 -1.0091,0.0219 0.088,-0.76781 -1.9305,-0.41681 z m -27.2245,4.78239 -0.5265,0.15356 0.2194,0.43875 0.022,0.39488 0.6143,0.702 0.4607,-0.46068 -0.5484,-0.5265 -0.2633,-0.68007 z m -1.1407,0.8775 -0.50464,0.30713 -0.6142,0.26325 -0.74587,0.59231 -0.2852,0.78976 v 1.05301 l 0.8556,0.0219 0.39477,-1.07495 0.066,-0.72394 0.3072,-0.0877 0.57044,0.13162 0.1096,0.32906 0.3072,-0.022 -0.1097,-0.78975 -0.044,-0.54844 -0.3291,-0.21937 z m 15.5099,1.44788 -0.4827,0.59232 -0.1536,0.76781 -0.8994,0.48263 0.1975,0.022 0.9872,-0.2413 0.3728,-0.48264 0.1098,-0.65812 -0.1536,-0.50456 z m 8.6872,27.42198 -2.6325,0.76781 -0.9214,0.1097 -0.702,0.78975 -2.4789,1.404 -1.3602,0.13162 -2.2157,-0.17549 -1.4259,-0.61426 -1.1407,-0.32906 -1.2724,0.28519 -0.8556,0.83362 -0.5923,1.07494 -0.351,1.09688 0.044,0.83364 0.7678,1.29432 0.2194,1.49175 0.3949,1.09688 0.044,1.22851 -0.4388,1.68918 -0.8994,1.36013 -0.7898,0.72394 -0.7678,0.8117 0.8995,0.15356 0.8555,-0.351 1.2285,-0.68007 1.2285,-0.28519 1.1847,-0.15356 1.0749,0.24132 0.8117,-0.24132 0.6801,-0.41681 0.8117,0.351 0.7677,0.78975 0.724,-0.32906 1.0968,-0.46069 1.1847,-0.43876 1.0091,-0.5265 1.7989,-0.022 1.9305,-0.68007 1.7551,0.68007 0.8336,-0.21938 2.6105,-0.8775 0.5046,0.351 0.2194,-0.0659 0.5922,-0.74588 0.8117,-0.10968 0.9434,0.21937 0.8117,0.41681 1.777,-0.92137 0.7677,0.21937 4.9141,-1.44788 0.6142,-1.00913 2.0183,-0.57037 1.2285,0.21937 1.7111,-0.92137 1.9524,-1.31626 1.7112,-1.57951 0.8556,-0.10969 0.9433,0.10969 1.7111,0.0878 0.9652,-0.61426 0.5046,-0.92137 -0.5485,-0.63619 -1.0529,-0.32906 -0.5924,0.24131 -3.51,0.72394 -1.053,-0.59232 -3.9268,0.43875 -0.7898,-0.50456 -0.8774,-0.15356 -1.777,0.0878 -1.2943,-0.19743 -1.0091,0.83362 -1.1188,0.68007 -1.1847,0.76781 -1.7769,0.0878 -1.7331,-1.40401 -1.2065,-0.78975 -1.3163,-1.53563 -1.404,-1.38207 -1.4479,0.0878 -1.1627,0.28519 -1.9305,-0.41681 z" fill="#fff"/>
 </g>
 <!-- <g
     id="outlines"
     class="state">
    <path
       class="separator1"
       fill="none"
       d="M -72.29469,425.73161 H 125.06365 L 366.2794,541.95374 V 612.1256 M 198.52481,461.12453 v 67.67199 l 94.29343,83.32908 M 11.034388,425.73161 v 137.0544 H -72.29469 m 83.329078,-40.5681 H -72.29469 M 11.034388,483.84267 H -72.29469"
       id="path246"
       style="display:inline;stroke:#b0b0b0;stroke-width:2.19287" />
    <path
       class="separator2"
       fill="none"
       d="M 11.034388,464.10684 H -72.29469 m 48.24315,58.11107 v 40.5681 m 0,-27.41088 h -48.24315"
       id="path244"
       style="display:inline;stroke:#d0d0d0;stroke-width:1.09644" />
    <path
       class="separator1"
       fill="none"
       d="m 865.15744,612.1256 v -49.33959 h 131.57227 m -54.8218,0 v 49.33959"
       id="path242"
       style="display:inline;stroke:#b0b0b0;stroke-width:2.19287" />
    <path
       class="separator2"
       fill="none"
       d="m 941.90791,583.61828 h 54.8218"
       id="path240"
       style="display:inline;stroke:#d0d0d0;stroke-width:1.09644" /> -->
 <g id="text">
  <text id="NY-text" x="818.16412" y="153.05663" xml:space="preserve"><tspan id="tspan4864" x="818.16412" y="153.05663">NY </tspan><tspan id="tspan350" x="818.16412" y="168.05663">29</tspan></text>
  <text id="PA-text" x="782.07806" y="209.66588" xml:space="preserve"><tspan id="tspan8878" x="782.07806" y="209.66588">PA </tspan><tspan id="tspan348" x="782.07806" y="224.66588">20</tspan></text>
  <text id="OH-text" x="698.93951" y="240.423" xml:space="preserve"><tspan id="tspan8900" x="698.93951" y="240.423">OH </tspan><tspan id="tspan330" x="698.93951" y="255.423">18</tspan></text>
  <text id="VA-text" x="787.45325" y="282.26208" xml:space="preserve"><tspan id="tspan8922" x="787.45325" y="282.26208">VA </tspan><tspan id="tspan326" x="787.45325" y="297.26208">13</tspan></text>
  <text id="NC-text" x="788.30328" y="332.69342" xml:space="preserve"><tspan id="tspan8922-1" x="788.30328" y="332.69342">NC </tspan><tspan id="tspan324" x="788.30328" y="347.69342">15</tspan></text>
  <text id="SC-text" x="760.30914" y="377.11307" xml:space="preserve"><tspan id="tspan8966" x="760.30914" y="377.11307">SC </tspan><tspan id="tspan322" x="760.30914" y="392.11307">9</tspan></text>
  <text id="GA-text" x="715.97516" y="409.60007" xml:space="preserve"><tspan id="tspan8988" x="715.97516" y="409.60007">GA </tspan><tspan id="tspan318" x="715.97516" y="424.60007">16</tspan></text>
  <text id="FL-text" x="763.95477" y="501.80151" xml:space="preserve"><tspan id="tspan8988-2" x="763.95477" y="501.80151">FL </tspan><tspan id="tspan320" x="763.95477" y="516.80151">29</tspan></text>
  <text id="AL-text" x="653.29126" y="413.86209" xml:space="preserve"><tspan id="tspan8988-2-7" x="653.29126" y="413.86209">AL </tspan><tspan id="tspan316" x="653.29126" y="428.86209">9</tspan></text>
  <text id="MS-text" x="599.50012" y="417.56348" xml:space="preserve"><tspan id="tspan8988-2-9" x="599.50012" y="417.56348">MS </tspan><tspan id="tspan314" x="599.50012" y="432.56348">6</tspan></text>
  <text id="LA-text" x="543.47321" y="442.68225" xml:space="preserve"><tspan id="tspan8988-2-2" x="543.47321" y="442.68225">LA </tspan><tspan id="tspan312" x="543.47321" y="457.68225">8</tspan></text>
  <text id="TX-text" x="425.24323" y="451.78485" xml:space="preserve"><tspan id="tspan8988-2-97" x="425.24323" y="451.78485">TX </tspan><tspan id="tspan308" x="425.24323" y="466.78485">38</tspan></text>
  <text id="NM-text" x="300.51709" y="374.96732" xml:space="preserve"><tspan id="tspan8988-2-6" x="300.51709" y="374.96732">NM </tspan><tspan id="tspan298" x="300.51709" y="389.96732">5</tspan></text>
  <text id="AZ-text" x="201.45459" y="359.95444" xml:space="preserve"><tspan id="tspan8988-2-29" x="201.45459" y="359.95444">AZ </tspan><tspan id="tspan296" x="201.45459" y="374.95444">11</tspan></text>
  <text id="CA-text" x="71.765541" y="286.508" xml:space="preserve"><tspan id="tspan8988-2-1" x="71.765541" y="286.508">CA </tspan><tspan id="tspan294" x="71.765541" y="301.508">55</tspan></text>
  <text id="NV-text" x="134.24072" y="236.30057" xml:space="preserve"><tspan id="tspan8988-2-4" x="134.24072" y="236.30057">NV </tspan><tspan id="tspan292" x="134.24072" y="251.30057">6</tspan></text>
  <text id="UT-text" x="217.71013" y="260.61462" xml:space="preserve"><tspan id="tspan8988-2-8" x="217.71013" y="260.61462">UT </tspan><tspan id="tspan358" x="217.71013" y="275.61462">6</tspan></text>
  <text id="AK-text" x="118.62477" y="498.93817" xml:space="preserve"><tspan id="tspan8988-2-5" x="118.62477" y="498.93817">AK </tspan><tspan id="tspan310" x="118.62477" y="513.93817">3</tspan></text>
  <text id="OR-text" x="92.813881" y="128.97232" xml:space="preserve"><tspan id="tspan8988-2-3" x="92.813881" y="128.97232">OR </tspan><tspan id="tspan286" x="92.813881" y="143.97232">7</tspan></text>
  <text id="WA-text" x="114.88856" y="50.403862" xml:space="preserve"><tspan id="tspan8988-2-10" x="114.88856" y="50.403862">WA </tspan><tspan id="tspan284" x="114.88856" y="65.403862">12</tspan></text>
  <text id="ID-text" x="187.10637" y="151.13513" xml:space="preserve"><tspan id="tspan8988-2-32" x="187.10637" y="151.13513">ID </tspan><tspan id="tspan288" x="187.10637" y="166.13513">4</tspan></text>
  <text id="MT-text" x="267.15582" y="88.959305" xml:space="preserve"><tspan id="tspan8988-2-61" x="267.15582" y="88.959305">MT </tspan><tspan id="tspan282" x="267.15582" y="103.9593">3</tspan></text>
  <text id="WY-text" x="298.88071" y="184.20738" xml:space="preserve"><tspan id="tspan4124" x="298.88071" y="184.20738">WY </tspan><tspan id="tspan290" x="298.88071" y="199.20738">3</tspan></text>
  <text id="CO-text" x="317.33667" y="277.56671" xml:space="preserve"><tspan id="tspan8988-2-65" x="317.33667" y="277.56671">CO </tspan><tspan id="tspan300" x="317.33667" y="292.56671">9</tspan></text>
  <text id="ND-text" x="414.06073" y="96.523651" xml:space="preserve"><tspan id="tspan8988-2-93" x="414.06073" y="96.523651">ND </tspan><tspan id="tspan280" x="414.06073" y="111.52365">3</tspan></text>
  <text id="SD-text" x="413.7551" y="160.07703" xml:space="preserve"><tspan id="tspan8988-2-45" x="413.7551" y="160.07703">SD </tspan><tspan id="tspan354" x="413.7551" y="175.07703">3</tspan></text>
  <text id="NE-text" x="420.86453" y="227.96211" xml:space="preserve"><tspan id="tspan8988-2-47" x="420.86453" y="227.96211">NE </tspan><tspan id="tspan304" x="420.86453" y="242.96211">5</tspan></text>
  <text id="KS-text" x="440.67682" y="292.60141" xml:space="preserve"><tspan id="tspan8988-2-43" x="440.67682" y="292.60141">KS </tspan><tspan id="tspan302" x="440.67682" y="307.60141">6</tspan></text>
  <text id="OK-text" x="457.82797" y="358.8862" xml:space="preserve"><tspan id="tspan8988-2-78" x="457.82797" y="358.8862">OK </tspan><tspan id="tspan306" x="457.82797" y="373.8862">7</tspan></text>
  <text id="AR-text" x="542.90167" y="374.47449" xml:space="preserve"><tspan id="tspan8988-2-88" x="542.90167" y="374.47449">AR </tspan><tspan id="tspan344" x="542.90167" y="389.47449">6</tspan></text>
  <text id="MO-text" x="542.75427" y="296.88016" xml:space="preserve"><tspan id="tspan8988-2-31" x="542.75427" y="296.88016">MO </tspan><tspan id="tspan342" x="542.75427" y="311.88016">10</tspan></text>
  <text id="IA-text" x="524.06213" y="215.34053" xml:space="preserve"><tspan id="tspan8988-2-92" x="524.06213" y="215.34053">IA </tspan><tspan id="tspan340" x="524.06213" y="230.34053">6</tspan></text>
  <text id="MN-text" x="504.05325" y="126.95208" xml:space="preserve"><tspan id="tspan8988-2-68" x="504.05325" y="126.95208">MN </tspan><tspan id="tspan278" x="504.05325" y="141.95207">10</tspan></text>
  <text id="WI-text" x="578.27655" y="161.49774" xml:space="preserve"><tspan id="tspan8988-2-26" x="578.27655" y="161.49774">WI </tspan><tspan id="tspan276" x="578.27655" y="176.49774">10</tspan></text>
  <text id="IL-text" x="596.22632" y="256.01404" xml:space="preserve"><tspan id="tspan8988-2-49" x="596.22632" y="256.01404">IL </tspan><tspan id="tspan338" x="596.22632" y="271.01401">20</tspan></text>
  <text id="IN-text" x="643.55707" y="250.16469" xml:space="preserve"><tspan id="tspan8988-2-0" x="643.55707" y="250.16469">IN </tspan><tspan id="tspan332" x="643.55707" y="265.16467">11</tspan></text>
  <text id="KY-text" x="679.9621" y="298.74237" xml:space="preserve"><tspan id="tspan8988-2-87" x="679.9621" y="298.74237">KY </tspan><tspan id="tspan334" x="679.9621" y="313.74237">8</tspan></text>
  <text id="TN-text" x="648.97949" y="342.21976" xml:space="preserve"><tspan id="tspan8988-2-72" x="648.97949" y="342.21976">TN </tspan><tspan id="tspan336" x="648.97949" y="357.21976">11</tspan></text>
  <text id="MI-text" x="658.43652" y="182.30766" xml:space="preserve"><tspan id="tspan8988-2-22" x="658.43652" y="182.30766">MI </tspan><tspan id="tspan346" x="658.43652" y="197.30766">16</tspan></text>
  <text id="WV-text" x="741.71759" y="273.23007" xml:space="preserve"><tspan id="tspan8988-2-106" x="741.71759" y="273.23007">WV </tspan><tspan id="tspan328" x="741.71759" y="288.23007">5</tspan></text>
  <text id="ME-text" x="891.76605" y="77.754997" xml:space="preserve"><tspan id="tspan8988-2-59-0-7-1-7-7-5-9-9" x="891.76605" y="77.754997">ME </tspan><tspan id="tspan352" x="891.76605" y="92.754997">4</tspan></text>
  <text id="DC-text" x="894.5271" y="440.31741" xml:space="preserve"><tspan id="tspan8988-2-59" x="894.5271" y="440.31741">DC 3</tspan></text>
  <text id="MD-text" x="896.20734" y="415.54175" xml:space="preserve"><tspan id="tspan8988-2-59-0" x="896.20734" y="415.54175">MD 10</tspan></text>
  <text id="DE-text" x="893.83398" y="391.00787" xml:space="preserve"><tspan id="tspan8988-2-59-0-7" x="893.83398" y="391.00787">DE 3</tspan></text>
  <text id="NJ-text" x="894.80182" y="365.79587" xml:space="preserve"><tspan id="tspan8988-2-59-0-7-1" x="894.80182" y="365.79587">NJ 14</tspan></text>
  <text id="CT-text" x="894.0694" y="341.00787" xml:space="preserve"><tspan id="tspan8988-2-59-0-7-1-7" x="894.0694" y="341.00787">CT 7</tspan></text>
  <text id="RI-text" x="894.53833" y="316.62143" xml:space="preserve"><tspan id="tspan8988-2-59-0-7-1-7-7" x="894.53833" y="316.62143">RI 4</tspan></text>
  <text id="MA-text" x="895.48035" y="290.87396" xml:space="preserve"><tspan id="tspan8988-2-59-0-7-1-7-7-5" x="895.48035" y="290.87396">MA 11</tspan></text>
  <text id="VT-text" x="894.61737" y="266.16125" xml:space="preserve"><tspan id="tspan8988-2-59-0-7-1-7-7-5-9" x="894.61737" y="266.16125">VT 3</tspan></text>
  <text id="NH-text" x="894.72394" y="241.00783" xml:space="preserve"><tspan id="tspan8988-2-59-0-7-1-7-7-5-9-1" x="894.72394" y="241.00783">NH 4</tspan></text>
  <text id="HI-text" x="275.63611" y="569.52155" xml:space="preserve"><tspan id="tspan8988-2-59-0-0" x="275.63611" y="569.52155">HI 4</tspan></text>
  <text id="AS-text" x="-24.17375" y="155.5" xml:space="preserve"><tspan id="tspan8988-2-59-0-7-1-7-7-5-2" x="-24.17375" y="155.5">AS 3</tspan></text>
  <text id="GU-text" x="-24.17375" y="180.5" xml:space="preserve"><tspan id="tspan8988-2-59-0-7-1-7-7-5-2-1" x="-24.17375" y="180.5">GU 3</tspan></text>
  <text id="MP-text" x="-24.17375" y="205.5" xml:space="preserve"><tspan id="tspan8988-2-59-0-7-1-7-7-5-2-7" x="-24.17375" y="205.5">MP 3</tspan></text>
  <text id="PR-text" x="-24.17375" y="230.5" xml:space="preserve"><tspan id="tspan8988-2-59-0-7-1-7-7-5-2-9" x="-24.17375" y="230.5">PR 7</tspan></text>
  <text id="VI-text" x="-24.17375" y="255.5" xml:space="preserve"><tspan id="tspan8988-2-59-0-7-1-7-7-5-2-6" x="-24.17375" y="255.5">VI 3</tspan></text>
 </g>
</svg>
